<svg width="11" height="14" viewBox="0 0 11 14" fill="none" xmlns="http://www.w3.org/2000/svg">
<path d="M10.8768 0.809302V1.752L9.70344 2.56589H2.66345V5.9561H9.02291V8.01131H2.62239V11.5772H10.9061V13.6265H1.05011C0.922471 13.6434 0.792623 13.6251 0.674702 13.5735C0.556782 13.5218 0.455308 13.4389 0.381316 13.3338C0.340249 13.2986 0.193587 13.1405 0.193587 12.5901V1.46509C0.179687 1.34657 0.189649 1.22647 0.222895 1.11184C0.256141 0.997218 0.311992 0.890376 0.387179 0.797591C0.472873 0.70498 0.578957 0.633502 0.697055 0.588793C0.815153 0.544084 0.942038 0.527367 1.06771 0.539959H10.648C10.6818 0.53941 10.7153 0.546358 10.7462 0.560304C10.777 0.574251 10.8043 0.594848 10.8262 0.620611C10.8481 0.646373 10.864 0.67666 10.8727 0.709289C10.8815 0.741917 10.8829 0.776076 10.8768 0.809302Z" fill="#221A16"/>
</svg>
