<svg width="14" height="14" viewBox="0 0 14 14" fill="none" xmlns="http://www.w3.org/2000/svg">
<path d="M0.834963 7.05095C0.834963 5.84476 0.834963 4.64443 0.834963 3.43824C0.834963 1.52941 1.82057 0.416904 3.69203 0.352496C6.0387 0.270522 8.38536 0.270522 10.732 0.352496C12.492 0.42276 13.5187 1.48842 13.5598 3.28014C13.6263 5.82134 13.6263 8.35863 13.5598 10.892C13.5128 12.7891 12.3512 13.8197 10.4328 13.8197C8.29736 13.8197 6.16189 13.8197 4.02643 13.8197C1.94963 13.8197 0.870166 12.7189 0.846699 10.6168C0.823233 9.45748 0.834963 8.25129 0.834963 7.05095ZM11.172 7.11536C11.172 6.0497 11.172 4.98403 11.172 3.91837C11.172 2.85271 10.7496 2.39599 9.67602 2.37843C8.02749 2.3433 6.36723 2.37843 4.7187 2.37843C3.77417 2.37843 3.23443 2.80586 3.2403 3.81883C3.2403 6.02042 3.2403 8.22201 3.2403 10.4236C3.2403 11.3839 3.7507 11.7996 4.66003 11.8054C6.34376 11.8054 8.03336 11.8054 9.72296 11.8054C10.732 11.8054 11.1486 11.3487 11.1662 10.3299C11.1838 9.31109 11.172 8.18688 11.172 7.11536Z" fill="#221A16"/>
</svg>
