<svg width="13" height="14" viewBox="0 0 13 14" fill="none" xmlns="http://www.w3.org/2000/svg">
<path d="M3.2372 8.77835V13.8198H0.949219V0.493114H4.88575C6.50494 0.493114 8.12413 0.463838 9.74332 0.493114C11.7028 0.534101 12.7764 1.66417 12.8233 3.60227C12.8233 4.05313 12.8233 4.49813 12.8233 4.94314C12.8233 7.39065 12.5065 7.7771 10.2185 8.64368C11.0633 9.93184 12.0606 11.4718 12.9993 12.678V13.808H10.7524C10.7524 13.808 8.34119 9.80888 7.44359 8.7725L3.2372 8.77835ZM3.29002 6.68801C5.30228 6.68801 7.19133 6.74071 9.08039 6.65288C9.33529 6.62558 9.58001 6.53805 9.79426 6.39752C10.0085 6.257 10.1861 6.06754 10.3124 5.84485C10.4766 5.0471 10.4766 4.22436 10.3124 3.42661C10.2335 3.22952 10.1061 3.05542 9.94209 2.92035C9.77805 2.78528 9.58259 2.69359 9.37372 2.65372C7.3556 2.5776 5.33747 2.61859 3.28415 2.61859L3.29002 6.68801Z" fill="#221A16"/>
</svg>
