<svg width="80" height="80" viewBox="0 0 80 80" fill="none" xmlns="http://www.w3.org/2000/svg">
<path d="M11.25 2.5V77.5C11.25 77.8315 11.3817 78.1495 11.6161 78.3839C11.8505 78.6183 12.1685 78.75 12.5 78.75H67.5C67.8315 78.75 68.1495 78.6183 68.3839 78.3839C68.6183 78.1495 68.75 77.8315 68.75 77.5V2.5C68.75 2.16848 68.6183 1.85054 68.3839 1.61612C68.1495 1.3817 67.8315 1.25 67.5 1.25H12.5C12.1685 1.25 11.8505 1.3817 11.6161 1.61612C11.3817 1.85054 11.25 2.16848 11.25 2.5ZM13.75 3.75H66.25V76.25H13.75V3.75Z" fill="#5682FF"/>
<path d="M55 6.25H62.5V8.75H55V6.25Z" fill="#5682FF"/>
<path d="M55 38.75H62.5V41.25H55V38.75Z" fill="#5682FF"/>
<path d="M17.5 43.75H20V51.25H17.5V43.75Z" fill="#5682FF"/>
<path d="M50 43.75H52.5V51.25H50V43.75Z" fill="#5682FF"/>
<path d="M57.5 56.25H60V71.25H57.5V73.75H65V71.25H62.5V56.25H65V53.75H57.5V56.25Z" fill="#5682FF"/>
<path d="M15 56.25H17.5V71.25H15V73.75H22.5V71.25H20V56.25H22.5V53.75H15V56.25Z" fill="#5682FF"/>
<path d="M53.75 53.75H26.25C25.9185 53.75 25.6005 53.8817 25.3661 54.1161C25.1317 54.3505 25 54.6685 25 55V72.5C25 72.8315 25.1317 73.1495 25.3661 73.3839C25.6005 73.6183 25.9185 73.75 26.25 73.75H53.75C54.0815 73.75 54.3995 73.6183 54.6339 73.3839C54.8683 73.1495 55 72.8315 55 72.5V55C55 54.6685 54.8683 54.3505 54.6339 54.1161C54.3995 53.8817 54.0815 53.75 53.75 53.75ZM52.5 71.25H27.5V56.25H52.5V71.25Z" fill="#5682FF"/>
<path d="M28.3835 50.3662L26.7672 48.75H43.2322L41.616 50.3662L43.3835 52.1337L47.1335 48.3837C47.3678 48.1493 47.4995 47.8314 47.4995 47.5C47.4995 47.1685 47.3678 46.8506 47.1335 46.6162L43.3835 42.8662L41.616 44.6337L43.2322 46.25H26.7672L28.3835 44.6337L26.616 42.8662L22.866 46.6162C22.6316 46.8506 22.5 47.1685 22.5 47.5C22.5 47.8314 22.6316 48.1493 22.866 48.3837L26.616 52.1337L28.3835 50.3662Z" fill="#5682FF"/>
<path d="M55.8847 30.3662L54.1172 32.1337L57.8672 35.8837C58.1016 36.1181 58.4195 36.2497 58.7509 36.2497C59.0824 36.2497 59.4003 36.1181 59.6347 35.8837L63.3847 32.1337L61.6172 30.3662L60.0009 31.9825V15.5175L61.6172 17.1337L63.3847 15.3662L59.6347 11.6162C59.4003 11.3819 59.0824 11.2502 58.7509 11.2502C58.4195 11.2502 58.1016 11.3819 57.8672 11.6162L54.1172 15.3662L55.8847 17.1337L57.5009 15.5175V31.9825L55.8847 30.3662Z" fill="#5682FF"/>
<path d="M35 22.5C35.7417 22.5 36.4667 22.2801 37.0834 21.868C37.7001 21.456 38.1807 20.8703 38.4645 20.1851C38.7484 19.4998 38.8226 18.7458 38.6779 18.0184C38.5333 17.291 38.1761 16.6228 37.6517 16.0984C37.1272 15.5739 36.459 15.2168 35.7316 15.0721C35.0042 14.9274 34.2502 15.0016 33.5649 15.2855C32.8797 15.5693 32.294 16.0499 31.882 16.6666C31.4699 17.2833 31.25 18.0083 31.25 18.75C31.25 19.7446 31.6451 20.6984 32.3483 21.4017C33.0516 22.1049 34.0054 22.5 35 22.5ZM35 17.5C35.2472 17.5 35.4889 17.5733 35.6945 17.7107C35.9 17.848 36.0602 18.0432 36.1548 18.2716C36.2495 18.5001 36.2742 18.7514 36.226 18.9939C36.1778 19.2363 36.0587 19.4591 35.8839 19.6339C35.7091 19.8087 35.4863 19.9278 35.2439 19.976C35.0014 20.0242 34.7501 19.9995 34.5216 19.9049C34.2932 19.8102 34.098 19.65 33.9607 19.4445C33.8233 19.2389 33.75 18.9972 33.75 18.75C33.75 18.4185 33.8817 18.1005 34.1161 17.8661C34.3505 17.6317 34.6685 17.5 35 17.5Z" fill="#5682FF"/>
<path d="M35 41.25C38.4612 41.25 41.8446 40.2237 44.7225 38.3007C47.6003 36.3778 49.8434 33.6447 51.1679 30.447C52.4924 27.2493 52.839 23.7306 52.1637 20.3359C51.4885 16.9413 49.8218 13.8231 47.3744 11.3756C44.9269 8.92822 41.8087 7.26151 38.4141 6.58627C35.0194 5.91102 31.5007 6.25758 28.303 7.58212C25.1053 8.90665 22.3722 11.1497 20.4493 14.0275C18.5264 16.9054 17.5 20.2888 17.5 23.75C17.505 28.3898 19.3503 32.8381 22.6311 36.1189C25.9119 39.3997 30.3602 41.245 35 41.25ZM35 38.75C32.3376 38.7471 29.7238 38.0358 27.427 36.6893C25.1302 35.3427 23.2329 33.4094 21.93 31.0875L22.305 30.7125C24.0957 28.9222 26.4513 27.8075 28.9712 27.5582C31.491 27.3089 34.0194 27.9403 36.1262 29.345C39.2175 31.4084 42.8522 32.5065 46.5687 32.5H47.1587C45.7735 34.4319 43.9483 36.0064 41.8341 37.0932C39.7198 38.18 37.3772 38.7479 35 38.75ZM39.99 28.6063C41.1388 27.8884 42.4688 27.5137 43.8233 27.5261C45.1779 27.5385 46.5008 27.9375 47.6362 28.6763L48.8537 29.4888C48.7812 29.6625 48.6975 29.8288 48.6187 30H46.5687C44.3026 29.9992 42.0617 29.5245 39.99 28.6063ZM35 8.75001C37.2472 8.7447 39.4668 9.24562 41.4939 10.2156C43.5211 11.1855 45.3037 12.5996 46.7095 14.3528C48.1153 16.106 49.1082 18.1533 49.6144 20.3428C50.1207 22.5323 50.1273 24.8076 49.6337 27L49.0237 26.5925C47.4551 25.5696 45.6227 25.0249 43.75 25.0249C41.8773 25.0249 40.0449 25.5696 38.4762 26.5925L37.5 27.25C34.9728 25.5678 31.9499 24.792 28.9249 25.0495C25.8999 25.3069 23.0516 26.5824 20.845 28.6675C20.0522 26.4087 19.813 23.9926 20.1474 21.6222C20.4819 19.2517 21.3802 16.9961 22.767 15.0448C24.1537 13.0935 25.9885 11.5034 28.1171 10.4081C30.2457 9.31272 32.6061 8.74412 35 8.75001Z" fill="#5682FF"/>
<path d="M30 60H50V62.5H30V60Z" fill="#5682FF"/>
<path d="M30 65H45V67.5H30V65Z" fill="#5682FF"/>
<path d="M47.5 65H50V67.5H47.5V65Z" fill="#5682FF"/>
</svg>
