<svg width="84" height="84" viewBox="0 0 84 84" fill="none" xmlns="http://www.w3.org/2000/svg">
<path d="M75.8888 53.855C76.5725 52.9988 77 51.9288 77 50.75C77 47.9925 74.7575 45.75 72 45.75C69.2425 45.75 67 47.9925 67 50.75C67 51.9288 67.4275 52.9988 68.1112 53.855C65.985 54.8538 64.5 57 64.5 59.5V65.75C64.5 66.2237 64.7675 66.6562 65.1913 66.8688L67 67.7725V78.25C67 78.94 67.5588 79.5 68.25 79.5H75.75C76.4412 79.5 77 78.94 77 78.25V67.7725L78.8087 66.8675C79.2325 66.6563 79.5 66.2237 79.5 65.75V59.5C79.5 57 78.015 54.8538 75.8888 53.855ZM72 48.25C73.3787 48.25 74.5 49.3712 74.5 50.75C74.5 52.1287 73.3787 53.25 72 53.25C70.6213 53.25 69.5 52.1287 69.5 50.75C69.5 49.3712 70.6213 48.25 72 48.25ZM77 64.9775L75.1913 65.8825C74.7675 66.0937 74.5 66.5263 74.5 67V77H69.5V67C69.5 66.5263 69.2325 66.0938 68.8087 65.8812L67 64.9775V59.5C67 57.4325 68.6825 55.75 70.75 55.75H73.25C75.3175 55.75 77 57.4325 77 59.5V64.9775Z" fill="#5682FF"/>
<path d="M40.75 29.5C40.4938 29.5 40.2438 29.5787 40.0338 29.7262L27.5338 38.4762C27.25 38.675 27.0625 38.9812 27.0125 39.3225C26.9638 39.6637 27.0588 40.0112 27.2738 40.2812L32.2738 46.5312C32.52 46.8387 32.8838 47 33.2513 47C33.515 47 33.7825 46.9162 34.0075 46.7437L43.505 39.5H54.5C54.8575 39.5 55.2 39.3462 55.4363 39.0775L74.2538 17.7875L76.8488 20.3837C77.2013 20.7362 77.7288 20.845 78.1888 20.6637C78.6513 20.4812 78.9625 20.0437 78.9813 19.5462L79.4988 5.79622C79.5138 5.40997 79.3488 5.03872 79.0525 4.78997C78.755 4.54247 78.3588 4.44372 77.9825 4.52872L64.2325 7.54622C63.7638 7.64997 63.3938 8.01247 63.2838 8.48122C63.1738 8.94997 63.3425 9.43997 63.7175 9.74122L67.035 12.4112L50.2263 29.5H40.75ZM51.6413 31.6262L69.785 13.18C70.0325 12.9287 70.1625 12.5837 70.1413 12.2312C70.1213 11.8787 69.9525 11.5512 69.6775 11.33L67.3163 9.42872L76.94 7.31747L76.5913 16.59L75.0813 15.08C74.8388 14.8362 74.5113 14.7 74.16 14.715C73.815 14.725 73.49 14.8775 73.2613 15.1362L53.9363 37H43.0825C42.8088 37 42.5413 37.09 42.325 37.2562L33.4638 44.015L30.0588 39.76L41.1438 32H50.75C51.0863 32 51.4063 31.8662 51.6413 31.6262Z" fill="#5682FF"/>
<path d="M5.75 54.5H9.37C9.885 56.2262 10.5737 57.89 11.4275 59.4675L8.86875 62.0262C8.63375 62.2612 8.5025 62.5788 8.5025 62.91C8.5025 63.2412 8.63375 63.56 8.86875 63.7938L17.7075 72.6325C18.1962 73.1213 18.9862 73.1213 19.475 72.6325L22.0338 70.075C23.6112 70.9287 25.275 71.6175 27.0012 72.1312V75.75C27.0012 76.44 27.56 77 28.2512 77H40.7513C41.4425 77 42.0013 76.44 42.0013 75.75V72.13C43.7275 71.6162 45.3912 70.9275 46.9688 70.0737L49.5275 72.6313C50.0163 73.12 50.8063 73.12 51.295 72.6313L60.1338 63.7925C60.3688 63.5575 60.5 63.24 60.5 62.9088C60.5 62.5775 60.3688 62.2588 60.1338 62.025L57.575 59.4662C58.4287 57.8887 59.1162 56.225 59.6325 54.4987H63.25C63.9412 54.4987 64.5 53.9388 64.5 53.2487V40.75C64.5 40.06 63.9412 39.5 63.25 39.5H58.6813V42H62V52H58.6813C58.1113 52 57.6138 52.3862 57.4712 52.9375C56.915 55.09 56.0638 57.1438 54.9425 59.045C54.6538 59.5363 54.7325 60.1613 55.135 60.5638L57.4812 62.91L50.41 69.9812L48.0638 67.635C47.6625 67.2313 47.035 67.1525 46.5437 67.4425C44.6425 68.565 42.5887 69.4162 40.4375 69.97C39.8862 70.1125 39.5 70.61 39.5 71.18V74.5H29.5V71.18C29.5 70.61 29.1138 70.1125 28.5625 69.97C26.4112 69.4162 24.3575 68.565 22.4562 67.4425C21.9662 67.1525 21.34 67.2313 20.9363 67.635L18.59 69.9812L11.5187 62.91L13.865 60.5638C14.2675 60.16 14.3475 59.535 14.0575 59.045C12.9362 57.1438 12.085 55.09 11.5288 52.9375C11.3875 52.3862 10.8888 52 10.3188 52H7V42H10.3188C10.8888 42 11.3863 41.6138 11.5288 41.0625C12.085 38.91 12.9362 36.8563 14.0575 34.955C14.3462 34.4638 14.2675 33.8388 13.865 33.4363L11.5187 31.09L18.59 24.0187L20.9363 26.365C21.34 26.77 21.9662 26.8488 22.4562 26.5575C24.355 25.435 26.4088 24.585 28.5625 24.03C29.1138 23.8875 29.5 23.39 29.5 22.82V19.5H39.5V22.82C39.5 23.39 39.8862 23.8875 40.4375 24.03C42.5913 24.585 44.645 25.435 46.5437 26.5575C47.035 26.8488 47.6625 26.77 48.0638 26.365L50.41 24.0187L51.1162 24.725L52.8838 22.9575L51.2938 21.3675C50.805 20.8788 50.015 20.8788 49.5262 21.3675L46.9675 23.925C45.3913 23.0713 43.7275 22.3825 42 21.8688V18.25C42 17.56 41.4412 17 40.75 17H28.25C27.5588 17 27 17.56 27 18.25V21.87C25.2725 22.3837 23.6087 23.0725 22.0325 23.9263L19.4738 21.3687C18.985 20.88 18.195 20.88 17.7062 21.3687L8.8675 30.2075C8.6325 30.4425 8.50125 30.76 8.50125 31.0913C8.50125 31.4225 8.6325 31.7412 8.8675 31.975L11.4262 34.5338C10.5725 36.11 9.885 37.7738 9.37 39.5H5.75C5.05875 39.5 4.5 40.06 4.5 40.75V53.25C4.5 53.94 5.05875 54.5 5.75 54.5Z" fill="#5682FF"/>
<path d="M34.5 28.25C24.1613 28.25 15.75 36.6613 15.75 47C15.75 57.3387 24.1613 65.75 34.5 65.75C44.8387 65.75 53.25 57.3387 53.25 47C53.25 45.175 52.9887 43.3725 52.4725 41.6425L50.0775 42.3562C50.5238 43.855 50.75 45.4163 50.75 47C50.75 55.96 43.46 63.25 34.5 63.25C25.54 63.25 18.25 55.96 18.25 47C18.25 38.04 25.54 30.75 34.5 30.75V28.25Z" fill="#5682FF"/>
<path d="M25.75 54.5H28.25V58.25H25.75V54.5Z" fill="#5682FF"/>
<path d="M30.75 52H33.25V58.25H30.75V52Z" fill="#5682FF"/>
<path d="M35.75 49.5H38.25V58.25H35.75V49.5Z" fill="#5682FF"/>
<path d="M40.75 45.75H43.25V58.25H40.75V45.75Z" fill="#5682FF"/>
</svg>
