<svg id="Capa_1" data-name="Capa 1" xmlns="http://www.w3.org/2000/svg" viewBox="0 0 300 75.43"><defs><style>.cls-1{fill:#fff;}</style></defs><title>Logo_esedor_2020_blank</title><path class="cls-1" d="M283.36,40.61v8.61h-3.9V26.46h6.71c2.76,0,5.52-.05,8.28,0,3.34.07,5.17,2,5.25,5.31,0,.77,0,1.53,0,2.29,0,4.18-.54,4.84-4.44,6.32,1.44,2.2,3.14,4.83,4.74,6.89v1.93h-3.83s-4.11-6.83-5.64-8.6Zm.09-3.57c3.43,0,6.65.09,9.87-.06a2.75,2.75,0,0,0,2.1-1.38,10.26,10.26,0,0,0,0-4.13,2.16,2.16,0,0,0-1.6-1.32c-3.44-.13-6.88-.06-10.38-.06Z"/><path class="cls-1" d="M250.29,37.66c0-2.06,0-4.11,0-6.17,0-3.26,1.68-5.16,4.87-5.27q6-.21,12,0c3,.12,4.75,1.94,4.82,5q.17,6.51,0,13c-.08,3.24-2.06,5-5.33,5q-5.46,0-10.92,0c-3.54,0-5.38-1.88-5.42-5.47C250.27,41.77,250.29,39.71,250.29,37.66Zm17.62.11c0-1.82,0-3.64,0-5.46s-.72-2.6-2.55-2.63c-2.81-.06-5.64,0-8.45,0-1.61,0-2.53.73-2.52,2.46,0,3.76,0,7.52,0,11.28,0,1.64.87,2.35,2.42,2.36,2.87,0,5.75,0,8.63,0,1.72,0,2.43-.78,2.46-2.52S267.91,39.6,267.91,37.77Z"/><path class="cls-1" d="M222.12,26.54c5.6,0,11.11-.11,16.61.05a4.2,4.2,0,0,1,4.15,4.26c.16,4.57.17,9.16,0,13.73a4.37,4.37,0,0,1-4.47,4.34c-5.39.11-10.79,0-16.3,0Zm4,18.87c3.7,0,7.21,0,10.73,0A2,2,0,0,0,239,43.12c0-3.58,0-7.16,0-10.74,0-1.19-.54-2.2-1.78-2.24-3.67-.1-7.34,0-11.1,0Z"/><path class="cls-1" d="M168.7,49V45.42h13.77c1.57,0,2.43-.7,2.43-2.18,0-1.67-.31-2.74-2-3-2.36-.44-4.75-.77-7.12-1.14l-1-.13c-6.4-.89-6.47-3.5-6-8.51a4.29,4.29,0,0,1,4.17-3.9h14.83a.46.46,0,0,1,.46.46v1.54l-2,1.45c-3.23,0-7.28,0-10.51,0-2.19,0-3,.62-3.08,2.28-.11,1.87.57,2.6,2.68,2.94,3,.47,6,.94,9,1.44s4.51,2.22,4.54,5.28c0,.76,0,1.53,0,2.29A4.68,4.68,0,0,1,184.38,49Z"/><path class="cls-1" d="M161.43,26.91v1.68l-2,1.39H147.35v5.79H158.2V39.3H147.36v6.09h14.12v3.5h-16.8c-.88,0-1.08-.43-1.14-.5s-.33-.33-.33-1.27v-19a1.57,1.57,0,0,1,.33-1.14,1.41,1.41,0,0,1,1.16-.44h16.4A.33.33,0,0,1,161.43,26.91Z"/><path class="cls-1" d="M214.56,27v1.61l-2,1.39h-12v5.79h10.84V39.3H200.49v6.09h14.12v3.5h-16.8a1.2,1.2,0,0,1-1.14-.5c-.07-.06-.32-.33-.32-1.27v-19a1.53,1.53,0,0,1,.33-1.14,1.39,1.39,0,0,1,1.16-.44h16.33A.39.39,0,0,1,214.56,27Z"/><path class="cls-1" d="M88.07,13.71H2a1.59,1.59,0,0,1-.55-3.09L30.36.1A1.44,1.44,0,0,1,30.9,0H117a1.59,1.59,0,0,1,.55,3.09L88.61,13.61A1.44,1.44,0,0,1,88.07,13.71Z"/><path class="cls-1" d="M88.07,75.43H2a1.59,1.59,0,0,1-.55-3.09L30.36,61.82a1.44,1.44,0,0,1,.54-.1H117a1.59,1.59,0,0,1,.55,3.09L88.61,75.33A1.44,1.44,0,0,1,88.07,75.43Z"/><path class="cls-1" d="M41.22,44.57H2a1.59,1.59,0,0,1-.55-3.09L30.36,31a1.44,1.44,0,0,1,.54-.1H70.12A1.59,1.59,0,0,1,70.67,34L41.76,44.47A1.44,1.44,0,0,1,41.22,44.57Z"/></svg>