<svg width="13" height="14" viewBox="0 0 13 14" fill="none" xmlns="http://www.w3.org/2000/svg">
<path d="M0.310551 0.540021C3.59588 0.540021 6.82841 0.475613 10.0551 0.569297C10.3792 0.573115 10.6993 0.640708 10.9972 0.768207C11.295 0.895705 11.5648 1.0806 11.7909 1.31231C12.0171 1.54401 12.1952 1.81797 12.3152 2.1185C12.4351 2.41902 12.4944 2.74021 12.4897 3.06365C12.5836 5.73952 12.5895 8.4271 12.4897 11.103C12.4875 11.4425 12.4176 11.7782 12.284 12.0905C12.1505 12.4027 11.956 12.6854 11.712 12.9219C11.4679 13.1584 11.1791 13.3441 10.8624 13.4681C10.5457 13.5921 10.2074 13.6519 9.86734 13.6442C6.70521 13.7086 3.53722 13.6442 0.304688 13.6442L0.310551 0.540021ZM2.65721 11.589C4.82788 11.589 6.88708 11.589 8.95215 11.589C9.12886 11.6042 9.30673 11.5793 9.47239 11.516C9.63805 11.4528 9.78719 11.3529 9.90859 11.2238C10.03 11.0948 10.1205 10.9399 10.1733 10.7709C10.2261 10.6019 10.2399 10.4232 10.2135 10.2481C10.2135 8.1519 10.2135 6.05571 10.2135 3.95951C10.2135 3.26273 9.89668 2.67135 9.16921 2.64793C7.01615 2.58937 4.86308 2.64793 2.65721 2.64793V11.589Z" fill="#221A16"/>
</svg>
