<svg width="11" height="14" viewBox="0 0 11 14" fill="none" xmlns="http://www.w3.org/2000/svg">
<path d="M10.7059 0.75659V1.74028L9.53257 2.55416H2.44567V5.94438H8.81097V8.0113H2.45153V11.5772H10.7352V13.6265H0.879263C0.362998 13.6265 0.245666 13.3747 0.210466 13.3338C0.175266 13.2928 0.0168744 13.1405 0.0168744 12.5901V1.46508C-0.00858388 1.22587 0.0609128 0.986226 0.210466 0.797576C0.296706 0.705684 0.402864 0.634696 0.520816 0.590042C0.638768 0.545388 0.765392 0.528253 0.890999 0.539944H10.5123C10.5398 0.539742 10.5671 0.545398 10.5922 0.556539C10.6174 0.56768 10.6399 0.584047 10.6582 0.60455C10.6765 0.625052 10.6903 0.649218 10.6985 0.675436C10.7067 0.701653 10.7092 0.72932 10.7059 0.75659Z" fill="#221A16"/>
</svg>
