<svg width="13" height="14" viewBox="0 0 13 14" fill="none" xmlns="http://www.w3.org/2000/svg">
<path d="M0.971413 13.6909V11.5947H9.04982C9.97089 11.5947 10.4754 11.1848 10.4754 10.3183C10.4754 9.34043 10.2935 8.71391 9.30208 8.56167C7.91755 8.30404 6.51542 8.11082 5.12502 7.89417L4.53835 7.81805C0.783681 7.29693 0.742614 5.7687 1.01835 2.8352C1.07432 2.22127 1.35454 1.64933 1.80565 1.22824C2.25676 0.807161 2.84726 0.566343 3.46475 0.551636H12.165C12.2366 0.551636 12.3052 0.580013 12.3558 0.630525C12.4065 0.681037 12.4349 0.749545 12.4349 0.82098V1.72269L11.2616 2.57171C9.36662 2.57171 6.99061 2.57171 5.09568 2.57171C3.81088 2.57171 3.33568 2.93474 3.28875 3.90672C3.22421 5.00166 3.62315 5.42909 4.86102 5.62817C6.62102 5.90337 8.38102 6.17857 10.141 6.47133C11.901 6.7641 12.7869 7.77121 12.8045 9.56293C12.8045 10.0079 12.8045 10.4588 12.8045 10.9038C12.8173 11.6197 12.5489 12.3123 12.0566 12.8332C11.5643 13.3541 10.8872 13.662 10.1704 13.6909H0.971413Z" fill="#221A16"/>
</svg>
