<svg width="143" height="22" viewBox="0 0 143 22" fill="none" xmlns="http://www.w3.org/2000/svg">
<path d="M127.069 13.4848V21.2202H123.559V0.772162H129.599C132.083 0.772162 134.568 0.727241 137.052 0.772162C140.059 0.835052 141.706 2.56901 141.778 5.54278C141.778 6.23456 141.778 6.91736 141.778 7.60016C141.778 11.3556 141.292 11.9485 137.781 13.2782C139.077 15.2547 140.608 17.6176 142.048 19.4683V21.2023H138.6C138.6 21.2023 134.901 15.066 133.523 13.4758L127.069 13.4848ZM127.15 10.2775C130.238 10.2775 133.136 10.3583 136.035 10.2236C136.426 10.1817 136.801 10.0474 137.13 9.83174C137.459 9.61613 137.731 9.32543 137.925 8.98373C138.177 7.75969 138.177 6.49729 137.925 5.27325C137.804 4.97084 137.609 4.7037 137.357 4.49646C137.105 4.28921 136.805 4.14851 136.485 4.08734C133.388 3.97054 130.292 4.03343 127.141 4.03343L127.15 10.2775Z" fill="white"/>
<path d="M97.3014 10.8344C97.3014 8.98368 97.3014 7.14192 97.3014 5.29117C97.3014 2.36232 98.8137 0.655319 101.685 0.556492C105.286 0.430713 108.887 0.430713 112.487 0.556492C115.188 0.664303 116.763 2.29943 116.826 5.0486C116.928 8.94775 116.928 12.8409 116.826 16.7281C116.754 19.639 114.972 21.2202 112.028 21.2202C108.751 21.2202 105.475 21.2202 102.198 21.2202C99.0117 21.2202 97.3554 19.5311 97.3194 16.3058C97.2834 14.5269 97.3014 12.6762 97.3014 10.8344ZM113.162 10.9333C113.162 9.29813 113.162 7.66301 113.162 6.02788C113.162 4.39275 112.514 3.69198 110.867 3.66503C108.337 3.61113 105.79 3.66503 103.26 3.66503C101.811 3.66503 100.983 4.32088 100.992 5.87515C100.992 9.25321 100.992 12.6313 100.992 16.0093C100.992 17.4827 101.775 18.1206 103.17 18.1296C105.754 18.1296 108.346 18.1296 110.939 18.1296C112.487 18.1296 113.126 17.4288 113.153 15.8656C113.18 14.3023 113.162 12.5774 113.162 10.9333Z" fill="white"/>
<path d="M71.9465 0.84416C76.9874 0.84416 81.9473 0.745333 86.8982 0.889081C87.3955 0.894938 87.8867 0.998652 88.3438 1.19428C88.8008 1.38991 89.2147 1.67361 89.5617 2.02914C89.9087 2.38466 90.1821 2.80502 90.3661 3.26614C90.55 3.72726 90.6411 4.22007 90.6339 4.71636C90.778 8.82214 90.787 12.9459 90.6339 17.0517C90.6305 17.5726 90.5232 18.0877 90.3183 18.5669C90.1134 19.046 89.815 19.4797 89.4405 19.8426C89.066 20.2055 88.6229 20.4904 88.137 20.6807C87.6511 20.8709 87.132 20.9628 86.6102 20.9508C81.7583 21.0497 76.8974 20.9508 71.9375 20.9508L71.9465 0.84416ZM75.5472 17.7974C78.8778 17.7974 82.0374 17.7974 85.2059 17.7974C85.4771 17.8208 85.75 17.7825 86.0042 17.6855C86.2584 17.5884 86.4872 17.4351 86.6735 17.2371C86.8598 17.0391 86.9987 16.8015 87.0797 16.5422C87.1607 16.2829 87.1818 16.0086 87.1413 15.74C87.1413 12.5236 87.1413 9.30729 87.1413 6.09094C87.1413 5.02182 86.6552 4.11441 85.539 4.07848C82.2354 3.98863 78.9318 4.07848 75.5472 4.07848V17.7974Z" fill="white"/>
<path d="M23.8593 21.0226V17.8063H36.2546C37.6679 17.8063 38.442 17.1774 38.442 15.8477C38.442 14.3474 38.163 13.386 36.6417 13.1525C34.5173 12.7572 32.3659 12.4607 30.2325 12.1283L29.3324 12.0115C23.5713 11.2119 23.5083 8.86699 23.9314 4.3659C24.0172 3.42391 24.4472 2.54633 25.1394 1.90023C25.8316 1.25413 26.7376 0.884627 27.6851 0.862061H41.0345C41.1444 0.862061 41.2497 0.905602 41.3273 0.983106C41.405 1.06061 41.4486 1.16573 41.4486 1.27534V2.6589L39.6483 3.96161C36.7407 3.96161 33.0951 3.96161 30.1875 3.96161C28.2162 3.96161 27.487 4.51863 27.415 6.01001C27.316 7.69006 27.9281 8.34591 29.8275 8.65137C32.528 9.07363 35.2285 9.49588 37.929 9.94509C40.6295 10.3943 41.9887 11.9396 42.0157 14.6888C42.0157 15.3716 42.0157 16.0633 42.0157 16.7461C42.0354 17.8447 41.6235 18.9073 40.8681 19.7066C40.1128 20.5058 39.0739 20.9782 37.974 21.0226H23.8593Z" fill="white"/>
<path d="M17.3151 1.17651V2.68586L15.5148 3.93467H4.64084V9.13653H14.4076V12.308H4.64983V17.7793H17.3601V20.9238H2.23739C1.44524 20.9238 1.26521 20.5375 1.2112 20.4746C1.15719 20.4117 0.914161 20.1781 0.914161 19.3336V2.2636C0.875098 1.89656 0.981732 1.52886 1.2112 1.2394C1.34353 1.0984 1.50641 0.989481 1.6874 0.920966C1.86838 0.85245 2.06267 0.826157 2.2554 0.844097H17.0181C17.0603 0.843786 17.1021 0.852465 17.1407 0.869559C17.1793 0.886653 17.2138 0.911767 17.242 0.943225C17.2701 0.974684 17.2911 1.01176 17.3038 1.05199C17.3164 1.09222 17.3202 1.13467 17.3151 1.17651Z" fill="white"/>
<path d="M65.1396 1.25741V2.70387L63.3393 3.95267H52.5373V9.15453H62.2951V12.308H52.4743V17.7794H65.1846V20.9238H50.0619C49.866 20.9498 49.6668 20.9216 49.4858 20.8424C49.3049 20.7632 49.1492 20.636 49.0357 20.4746C48.9727 20.4207 48.7476 20.1781 48.7476 19.3336V2.26364C48.7263 2.08178 48.7416 1.8975 48.7926 1.72162C48.8436 1.54574 48.9293 1.38181 49.0447 1.23944C49.1762 1.09734 49.3389 0.987666 49.5201 0.919065C49.7013 0.850465 49.896 0.824815 50.0889 0.844137H64.7886C64.8405 0.843294 64.8919 0.853954 64.9392 0.875353C64.9865 0.896752 65.0285 0.928357 65.0621 0.967886C65.0956 1.00742 65.12 1.05389 65.1334 1.10395C65.1468 1.15402 65.149 1.20643 65.1396 1.25741Z" fill="white"/>
</svg>
