<svg width="92" height="14" viewBox="0 0 92 14" fill="none" xmlns="http://www.w3.org/2000/svg">
<path d="M82.2372 8.77835V13.8198H79.9492V0.493114H83.8857C85.5049 0.493114 87.1241 0.463838 88.7433 0.493114C90.7028 0.534101 91.7764 1.66417 91.8233 3.60227C91.8233 4.05313 91.8233 4.49813 91.8233 4.94314C91.8233 7.39065 91.5065 7.7771 89.2185 8.64368C90.0633 9.93184 91.0606 11.4718 91.9993 12.678V13.808H89.7524C89.7524 13.808 87.3412 9.80888 86.4436 8.7725L82.2372 8.77835ZM82.29 6.68801C84.3023 6.68801 86.1913 6.74071 88.0804 6.65288C88.3353 6.62558 88.58 6.53805 88.7943 6.39752C89.0085 6.257 89.1861 6.06754 89.3124 5.84485C89.4766 5.0471 89.4766 4.22436 89.3124 3.42661C89.2335 3.22952 89.1061 3.05542 88.9421 2.92035C88.778 2.78528 88.5826 2.69359 88.3737 2.65372C86.3556 2.5776 84.3375 2.61859 82.2841 2.61859L82.29 6.68801Z" fill="#221A16"/>
<path d="M62.835 7.05095C62.835 5.84476 62.835 4.64443 62.835 3.43824C62.835 1.52941 63.8206 0.416904 65.692 0.352496C68.0387 0.270522 70.3854 0.270522 72.732 0.352496C74.492 0.42276 75.5187 1.48842 75.5598 3.28014C75.6263 5.82134 75.6263 8.35863 75.5598 10.892C75.5128 12.7891 74.3512 13.8197 72.4328 13.8197C70.2974 13.8197 68.1619 13.8197 66.0264 13.8197C63.9496 13.8197 62.8702 12.7189 62.8467 10.6168C62.8232 9.45748 62.835 8.25129 62.835 7.05095ZM73.172 7.11536C73.172 6.0497 73.172 4.98403 73.172 3.91837C73.172 2.85271 72.7496 2.39599 71.676 2.37843C70.0275 2.3433 68.3672 2.37843 66.7187 2.37843C65.7742 2.37843 65.2344 2.80586 65.2403 3.81883C65.2403 6.02042 65.2403 8.22201 65.2403 10.4236C65.2403 11.3839 65.7507 11.7996 66.66 11.8054C68.3438 11.8054 70.0334 11.8054 71.723 11.8054C72.732 11.8054 73.1486 11.3487 73.1662 10.3299C73.1838 9.31109 73.172 8.18688 73.172 7.11536Z" fill="#221A16"/>
<path d="M46.3106 0.540021C49.5959 0.540021 52.8284 0.475613 56.0551 0.569297C56.3792 0.573115 56.6993 0.640708 56.9972 0.768207C57.295 0.895705 57.5648 1.0806 57.7909 1.31231C58.0171 1.54401 58.1952 1.81797 58.3152 2.1185C58.4351 2.41902 58.4944 2.74021 58.4897 3.06365C58.5836 5.73952 58.5895 8.4271 58.4897 11.103C58.4875 11.4425 58.4176 11.7782 58.284 12.0905C58.1505 12.4027 57.956 12.6854 57.712 12.9219C57.4679 13.1584 57.1791 13.3441 56.8624 13.4681C56.5457 13.5921 56.2074 13.6519 55.8673 13.6442C52.7052 13.7086 49.5372 13.6442 46.3047 13.6442L46.3106 0.540021ZM48.6572 11.589C50.8279 11.589 52.8871 11.589 54.9521 11.589C55.1289 11.6042 55.3067 11.5793 55.4724 11.516C55.6381 11.4528 55.7872 11.3529 55.9086 11.2238C56.03 11.0948 56.1205 10.9399 56.1733 10.7709C56.2261 10.6019 56.2399 10.4232 56.2135 10.2481C56.2135 8.1519 56.2135 6.05571 56.2135 3.95951C56.2135 3.26273 55.8967 2.67135 55.1692 2.64793C53.0161 2.58937 50.8631 2.64793 48.6572 2.64793V11.589Z" fill="#221A16"/>
<path d="M14.9714 13.6909V11.5947H23.0498C23.9709 11.5947 24.4754 11.1848 24.4754 10.3183C24.4754 9.34043 24.2935 8.71391 23.3021 8.56167C21.9175 8.30404 20.5154 8.11082 19.125 7.89417L18.5383 7.81805C14.7837 7.29693 14.7426 5.7687 15.0183 2.8352C15.0743 2.22127 15.3545 1.64933 15.8057 1.22824C16.2568 0.807161 16.8473 0.566343 17.4647 0.551636H26.165C26.2366 0.551636 26.3052 0.580013 26.3558 0.630525C26.4065 0.681037 26.4349 0.749545 26.4349 0.82098V1.72269L25.2616 2.57171C23.3666 2.57171 20.9906 2.57171 19.0957 2.57171C17.8109 2.57171 17.3357 2.93474 17.2887 3.90672C17.2242 5.00166 17.6232 5.42909 18.861 5.62817C20.621 5.90337 22.381 6.17857 24.141 6.47133C25.901 6.7641 26.7869 7.77121 26.8045 9.56293C26.8045 10.0079 26.8045 10.4588 26.8045 10.9038C26.8173 11.6197 26.5489 12.3123 26.0566 12.8332C25.5643 13.3541 24.8872 13.662 24.1704 13.6909H14.9714Z" fill="#221A16"/>
<path d="M10.7059 0.75659V1.74028L9.53257 2.55416H2.44567V5.94438H8.81097V8.0113H2.45153V11.5772H10.7352V13.6265H0.879263C0.362998 13.6265 0.245666 13.3747 0.210466 13.3338C0.175266 13.2928 0.0168744 13.1405 0.0168744 12.5901V1.46508C-0.00858388 1.22587 0.0609128 0.986226 0.210466 0.797576C0.296706 0.705684 0.402864 0.634696 0.520816 0.590042C0.638768 0.545388 0.765392 0.528253 0.890999 0.539944H10.5123C10.5398 0.539742 10.5671 0.545398 10.5922 0.556539C10.6174 0.56768 10.6399 0.584047 10.6582 0.60455C10.6765 0.625052 10.6903 0.649218 10.6985 0.675436C10.7067 0.701653 10.7092 0.72932 10.7059 0.75659Z" fill="#221A16"/>
<path d="M41.8768 0.809302V1.752L40.7034 2.56589H33.6634V5.9561H40.0229V8.01131H33.6224V11.5772H41.9061V13.6265H32.0501C31.9225 13.6434 31.7926 13.6251 31.6747 13.5735C31.5568 13.5218 31.4553 13.4389 31.3813 13.3338C31.3402 13.2986 31.1936 13.1405 31.1936 12.5901V1.46509C31.1797 1.34657 31.1896 1.22647 31.2229 1.11184C31.2561 0.997218 31.312 0.890376 31.3872 0.797591C31.4729 0.70498 31.579 0.633502 31.6971 0.588793C31.8152 0.544084 31.942 0.527367 32.0677 0.539959H41.648C41.6818 0.53941 41.7153 0.546358 41.7462 0.560304C41.777 0.574251 41.8043 0.594848 41.8262 0.620611C41.8481 0.646373 41.864 0.67666 41.8727 0.709289C41.8815 0.741917 41.8829 0.776076 41.8768 0.809302Z" fill="#221A16"/>
</svg>
