<svg width="85" height="81" viewBox="0 0 85 81" fill="none" xmlns="http://www.w3.org/2000/svg">
<g clip-path="url(#clip0_4629_18905)">
<path d="M2 23.87H76.73" stroke="#5682FF" stroke-width="3.31" stroke-linecap="round" stroke-linejoin="round"/>
<path d="M15.7008 16.89C16.4726 16.89 17.227 16.661 17.8686 16.232C18.5101 15.803 19.01 15.1933 19.3049 14.4801C19.5998 13.7669 19.6764 12.9822 19.5251 12.2254C19.3738 11.4686 19.0014 10.7737 18.455 10.2287C17.9085 9.68369 17.2127 9.31304 16.4555 9.16369C15.6983 9.01434 14.9138 9.093 14.2014 9.38972C13.4889 9.68643 12.8805 10.1879 12.4532 10.8305C12.0259 11.4732 11.7988 12.2282 11.8008 13C11.8034 14.0326 12.2155 15.022 12.9466 15.7512C13.6777 16.4805 14.6682 16.89 15.7008 16.89V16.89Z" stroke="#5682FF" stroke-width="3.31" stroke-linecap="round" stroke-linejoin="round"/>
<path d="M49.5701 9.09997H64.2501C65.249 9.1506 66.1902 9.58306 66.8793 10.308C67.5684 11.0329 67.9527 11.9948 67.9527 12.995C67.9527 13.9951 67.5684 14.9571 66.8793 15.682C66.1902 16.4069 65.249 16.8393 64.2501 16.89H49.5701C49.042 16.9167 48.5139 16.8358 48.0181 16.6522C47.5222 16.4685 47.0689 16.1859 46.6856 15.8216C46.3024 15.4573 45.9972 15.0189 45.7887 14.5329C45.5802 14.047 45.4727 13.5237 45.4727 12.995C45.4727 12.4662 45.5802 11.9429 45.7887 11.457C45.9972 10.9711 46.3024 10.5326 46.6856 10.1683C47.0689 9.804 47.5222 9.52143 48.0181 9.33777C48.5139 9.15411 49.042 9.0732 49.5701 9.09997V9.09997Z" stroke="#5682FF" stroke-width="3.31" stroke-linecap="round" stroke-linejoin="round"/>
<path d="M30.0875 16.89C30.8593 16.89 31.6137 16.661 32.2553 16.232C32.8968 15.803 33.3967 15.1933 33.6916 14.4801C33.9865 13.7669 34.0631 12.9822 33.9118 12.2254C33.7605 11.4686 33.3881 10.7737 32.8417 10.2287C32.2952 9.68369 31.5994 9.31304 30.8422 9.16369C30.085 9.01434 29.3006 9.093 28.5881 9.38972C27.8757 9.68643 27.2672 10.1879 26.8399 10.8305C26.4126 11.4732 26.1855 12.2282 26.1875 13C26.1902 14.0326 26.6022 15.022 27.3333 15.7512C28.0644 16.4805 29.0549 16.89 30.0875 16.89V16.89Z" stroke="#5682FF" stroke-width="3.31" stroke-linecap="round" stroke-linejoin="round"/>
<path d="M27.0087 36.49L23.7188 50.23" stroke="#5682FF" stroke-width="3.31" stroke-linecap="round" stroke-linejoin="round"/>
<path d="M34.5703 48.99L39.2103 43.78C39.3109 43.6651 39.3663 43.5176 39.3663 43.365C39.3663 43.2123 39.3109 43.0648 39.2103 42.95L34.5703 37.73" stroke="#5682FF" stroke-width="3.31" stroke-linecap="round" stroke-linejoin="round"/>
<path d="M16.1593 48.99L11.5193 43.78C11.4187 43.6651 11.3633 43.5176 11.3633 43.365C11.3633 43.2123 11.4187 43.0648 11.5193 42.95L16.1593 37.73" stroke="#5682FF" stroke-width="3.31" stroke-linecap="round" stroke-linejoin="round"/>
<path d="M66.7308 43.74C68.5032 44.1351 70.1944 44.8319 71.7308 45.8L73.0808 44.46C73.2712 44.2695 73.4972 44.1184 73.746 44.0153C73.9948 43.9122 74.2615 43.8591 74.5308 43.8591C74.8001 43.8591 75.0668 43.9122 75.3156 44.0153C75.5644 44.1184 75.7904 44.2695 75.9808 44.46L78.0908 46.57C78.2813 46.7603 78.4324 46.9864 78.5355 47.2352C78.6386 47.484 78.6916 47.7506 78.6916 48.02C78.6916 48.2893 78.6386 48.5559 78.5355 48.8047C78.4324 49.0535 78.2813 49.2796 78.0908 49.47L76.7508 50.82C77.6955 52.3363 78.3721 54.004 78.7508 55.75H80.6608C81.1961 55.7522 81.7098 55.9618 82.0939 56.3348C82.478 56.7077 82.7027 57.2149 82.7208 57.75V60.75C82.7052 61.2858 82.4813 61.7945 82.0966 62.168C81.712 62.5414 81.1969 62.7502 80.6608 62.75H78.7708C78.388 64.4884 77.7117 66.1489 76.7708 67.66L78.1108 69C78.3013 69.1903 78.4524 69.4164 78.5555 69.6652C78.6586 69.914 78.7116 70.1806 78.7116 70.45C78.7116 70.7193 78.6586 70.9859 78.5555 71.2347C78.4524 71.4835 78.3013 71.7096 78.1108 71.9L75.9608 74.12C75.7704 74.3105 75.5444 74.4616 75.2956 74.5647C75.0468 74.6678 74.7801 74.7208 74.5108 74.7208C74.2415 74.7208 73.9748 74.6678 73.726 74.5647C73.4772 74.4616 73.2512 74.3105 73.0608 74.12L71.7108 72.78C70.1935 73.7228 68.5261 74.3992 66.7808 74.78V76.69C66.7681 77.2164 66.5533 77.7178 66.181 78.0901C65.8086 78.4625 65.3072 78.6773 64.7808 78.69H61.7808C61.2551 78.6749 60.7551 78.4593 60.3833 78.0874C60.0114 77.7156 59.7959 77.2156 59.7808 76.69V74.82C58.0408 74.432 56.3779 73.7561 54.8608 72.82L53.5208 74.16C53.3304 74.3504 53.1044 74.5016 52.8556 74.6047C52.6068 74.7078 52.3401 74.7608 52.0708 74.7608C51.8015 74.7608 51.5348 74.7078 51.286 74.6047C51.0372 74.5016 50.8112 74.3504 50.6208 74.16L48.3608 72C48.1703 71.8096 48.0192 71.5835 47.9161 71.3347C47.813 71.0859 47.7599 70.8193 47.7599 70.55C47.7599 70.2806 47.813 70.014 47.9161 69.7652C48.0192 69.5164 48.1703 69.2903 48.3608 69.1L49.7008 67.76C48.764 66.2468 48.088 64.587 47.7008 62.85H45.8008C45.2743 62.8373 44.773 62.6225 44.4006 62.2501C44.0283 61.8778 43.8135 61.3764 43.8008 60.85V57.85C43.8159 57.3243 44.0314 56.8243 44.4033 56.4525C44.7751 56.0806 45.2751 55.8651 45.8008 55.85H47.7008C48.0888 54.1226 48.7649 52.4728 49.7008 50.97L48.3608 49.52C48.1703 49.3296 48.0192 49.1035 47.9161 48.8547C47.813 48.6059 47.7599 48.3393 47.7599 48.07C47.7599 47.8006 47.813 47.534 47.9161 47.2852C48.0192 47.0364 48.1703 46.8103 48.3608 46.62L50.4808 44.5C50.6712 44.3095 50.8972 44.1584 51.146 44.0553C51.3948 43.9522 51.6615 43.8991 51.9308 43.8991C52.2001 43.8991 52.4668 43.9522 52.7156 44.0553C52.9644 44.1584 53.1904 44.3095 53.3808 44.5L54.7108 45.83C56.224 44.8728 57.8871 44.1765 59.6308 43.77V41.88C59.6306 41.3448 59.8397 40.8308 60.2134 40.4478C60.5871 40.0647 61.0958 39.843 61.6308 39.83H64.6308C65.1754 39.8299 65.6979 40.0456 66.0839 40.4298C66.4699 40.8139 66.6881 41.3353 66.6908 41.88L66.7308 43.74Z" stroke="#5682FF" stroke-width="3.31" stroke-linecap="round" stroke-linejoin="round"/>
<path d="M63.2295 50.85C64.9028 50.85 66.5384 51.3461 67.9297 52.2757C69.3209 53.2053 70.4052 54.5266 71.0456 56.0725C71.6859 57.6183 71.8534 59.3194 71.527 60.9604C71.2005 62.6015 70.3948 64.1089 69.2117 65.2921C68.0285 66.4753 66.5211 67.281 64.88 67.6074C63.2389 67.9339 61.5379 67.7663 59.992 67.126C58.4462 66.4857 57.1249 65.4013 56.1953 64.0101C55.2657 62.6189 54.7695 60.9832 54.7695 59.31C54.7695 57.0662 55.6609 54.9144 57.2474 53.3279C58.834 51.7413 60.9858 50.85 63.2295 50.85V50.85Z" stroke="#5682FF" stroke-width="3.31" stroke-linecap="round" stroke-linejoin="round"/>
<path d="M17.82 62.85H8.11C4.75 62.85 2 59.57 2 55.55V9.3C2 5.3 4.75 2 8.11 2H70.62C73.99 2 76.73 5.29 76.73 9.3V45.24M45.8 62.85H32.48" stroke="#5682FF" stroke-width="3.31" stroke-linecap="round" stroke-linejoin="round"/>
</g>
<defs>
<clipPath id="clip0_4629_18905">
<rect width="85" height="81" fill="white"/>
</clipPath>
</defs>
</svg>
