<svg width="84" height="84" viewBox="0 0 84 84" fill="none" xmlns="http://www.w3.org/2000/svg">
<path d="M38.1177 31.8678C37.9259 33.8113 38.2023 35.7724 38.924 37.587C39.6456 39.4017 40.7914 41.0171 42.2654 42.298C42.5946 42.5827 42.8583 42.9352 43.0385 43.3313C43.2188 43.7274 43.3114 44.1578 43.31 44.5929V47.25C43.3116 48.6419 43.8652 49.9763 44.8494 50.9605C45.8337 51.9448 47.1681 52.4984 48.56 52.5H51.185C52.5769 52.4984 53.9113 51.9448 54.8955 50.9605C55.8798 49.9763 56.4334 48.6419 56.435 47.25V44.5923C56.4299 44.1636 56.5178 43.7388 56.6927 43.3474C56.8676 42.9559 57.1254 42.6071 57.4482 42.3249C58.7614 41.1905 59.8182 39.7898 60.5486 38.2158C61.2789 36.6417 61.6661 34.9303 61.6844 33.1951C61.7027 31.46 61.3517 29.7408 60.6547 28.1517C59.9577 26.5625 58.9307 25.1399 57.6418 23.978C56.4177 22.8715 54.9709 22.04 53.3986 21.5395C51.8264 21.0389 50.1651 20.881 48.5267 21.0762C45.8212 21.4184 43.3139 22.6752 41.4207 24.638C39.5275 26.6008 38.3621 29.1518 38.1177 31.8678ZM45.935 44.625H53.81V45.9375H45.935V44.625ZM51.185 49.875H48.56C48.1013 49.8736 47.651 49.7515 47.2544 49.5212C46.8577 49.2908 46.5286 48.9602 46.3001 48.5625H53.4449C53.2164 48.9602 52.8873 49.2908 52.4906 49.5212C52.094 49.7515 51.6437 49.8736 51.185 49.875ZM48.8228 23.6846C49.1734 23.6445 49.526 23.6244 49.8789 23.6243C52.1009 23.6221 54.2444 24.446 55.8928 25.936C56.9025 26.8482 57.7069 27.9646 58.2528 29.2111C58.7987 30.4576 59.0737 31.8058 59.0594 33.1665C59.0452 34.5272 58.7421 35.8694 58.1702 37.1042C57.5984 38.339 56.7708 39.4383 55.7422 40.3292C55.2076 40.7968 54.7697 41.3643 54.4529 42H51.185V39.375C51.1851 39.1712 51.1378 38.9703 51.0467 38.7881C50.9556 38.6058 50.8232 38.4474 50.6601 38.3252L46.1523 34.944C46.085 34.8932 46.0304 34.8276 45.9927 34.7522C45.955 34.6769 45.9353 34.5938 45.935 34.5095V33.356C45.9434 33.2525 45.9802 33.1533 46.0413 33.0693C46.1024 32.9854 46.1855 32.9199 46.2815 32.8802C46.3774 32.8404 46.4824 32.8279 46.585 32.844C46.6876 32.8601 46.7838 32.9042 46.8629 32.9714L47.632 33.7405C48.2355 34.3168 49.038 34.6383 49.8725 34.6383C50.707 34.6383 51.5094 34.3168 52.1129 33.7405L52.882 32.9714C52.9611 32.9041 53.0573 32.86 53.1599 32.8439C53.2625 32.8277 53.3676 32.8402 53.4635 32.88C53.5595 32.9198 53.6426 32.9853 53.7037 33.0692C53.7648 33.1532 53.8016 33.2524 53.8099 33.356V34.5095C53.8096 34.594 53.7898 34.6772 53.752 34.7527C53.7142 34.8282 53.6595 34.8939 53.592 34.9447L51.7099 36.3565L53.2851 38.456L55.1667 37.0448C55.5596 36.7489 55.8786 36.366 56.0986 35.9261C56.3187 35.4863 56.4338 35.0014 56.435 34.5095V33.356C56.435 32.7293 56.2491 32.1167 55.901 31.5957C55.5528 31.0747 55.058 30.6685 54.479 30.4287C53.9001 30.1889 53.263 30.1262 52.6484 30.2484C52.0338 30.3707 51.4692 30.6724 51.0261 31.1155L50.2571 31.8845C50.1549 31.9861 50.0166 32.0432 49.8725 32.0432C49.7284 32.0432 49.5902 31.9861 49.488 31.8845L48.719 31.1155C48.2758 30.6724 47.7113 30.3706 47.0966 30.2484C46.482 30.1261 45.845 30.1888 45.266 30.4287C44.687 30.6685 44.1922 31.0746 43.844 31.5956C43.4958 32.1167 43.31 32.7293 43.31 33.3559V34.5095C43.3111 35.0012 43.4262 35.486 43.6461 35.9258C43.8661 36.3655 44.1849 36.7483 44.5776 37.0442L48.56 40.0312V42H45.2846C44.9617 41.3575 44.518 40.7833 43.9778 40.3087C42.8219 39.3017 41.9241 38.0325 41.3592 36.6074C40.7944 35.1822 40.579 33.6426 40.7311 32.1171C40.9369 30.0071 41.8471 28.0277 43.3149 26.498C44.7828 24.9682 46.723 23.9772 48.8228 23.6846Z" fill="#5682FF"/>
<path d="M48.5625 15.75H51.1875V19.6875H48.5625V15.75Z" fill="#5682FF"/>
<path d="M63 31.5H66.9375V34.125H63V31.5Z" fill="#5682FF"/>
<path d="M32.8125 31.5H36.75V34.125H32.8125V31.5Z" fill="#5682FF"/>
<path d="M36.875 21.6779L38.7312 19.8218L41.5154 22.606L39.6592 24.4622L36.875 21.6779Z" fill="#5682FF"/>
<path d="M58.2148 22.6076L60.9991 19.8234L62.8552 21.6795L60.071 24.4638L58.2148 22.6076Z" fill="#5682FF"/>
<path d="M49.8724 58.8638C55.6388 58.8598 61.2254 56.8566 65.6804 53.1954C70.1354 49.5343 73.1833 44.4417 74.3046 38.7854C75.4259 33.1291 74.5513 27.259 71.8299 22.1752C69.1085 17.0914 64.7086 13.1084 59.3799 10.9049C54.0511 8.70132 48.1232 8.41355 42.606 10.0906C37.0889 11.7676 32.3239 15.3057 29.1229 20.102C25.9218 24.8983 24.4828 30.6561 25.051 36.3945C25.6192 42.1328 28.1594 47.4966 32.2389 51.5721C34.553 53.889 37.302 55.7259 40.3281 56.9773C43.3542 58.2286 46.5978 58.8697 49.8724 58.8638ZM34.0948 18.1609C37.2153 15.0404 41.1911 12.9153 45.5194 12.0544C49.8476 11.1935 54.334 11.6353 58.4112 13.3241C62.4883 15.0129 65.9731 17.8728 68.4248 21.5422C70.8766 25.2115 72.1852 29.5254 72.1852 33.9385C72.1852 38.3516 70.8766 42.6655 68.4248 46.3349C65.9731 50.0042 62.4883 52.8641 58.4112 54.5529C54.334 56.2417 49.8476 56.6836 45.5194 55.8226C41.1911 54.9617 37.2153 52.8366 34.0948 49.7161C32.0142 47.649 30.363 45.1908 29.2363 42.483C28.1095 39.7753 27.5294 36.8714 27.5294 33.9385C27.5294 31.0056 28.1095 28.1017 29.2363 25.394C30.363 22.6862 32.0142 20.228 34.0948 18.1609Z" fill="#5682FF"/>
<path d="M11.2626 79.9734C11.7554 80.4647 12.4228 80.7405 13.1186 80.7405C13.8144 80.7405 14.4818 80.4647 14.9745 79.9734L29.4543 65.493C29.6981 65.2493 29.8916 64.96 30.0235 64.6415C30.1555 64.3231 30.2234 63.9817 30.2234 63.637C30.2234 63.2923 30.1555 62.951 30.0235 62.6325C29.8916 62.3141 29.6981 62.0247 29.4543 61.7811L31.6462 59.5892C38.0839 64.1652 46.0058 66.1557 53.8419 65.1663C61.678 64.1769 68.8565 60.2799 73.9548 54.2474C79.053 48.2149 81.6991 40.4872 81.3684 32.5958C81.0378 24.7045 77.7547 17.2252 72.1697 11.6403C66.5847 6.05543 59.1054 2.77246 51.214 2.442C43.3226 2.11155 35.595 4.75773 29.5626 9.85615C23.5302 14.9546 19.6333 22.1331 18.6441 29.9693C17.6549 37.8054 19.6456 45.7272 24.2217 52.1648L22.0301 54.3563L22.0292 54.3554C21.5363 53.8645 20.869 53.5889 20.1734 53.589C19.4778 53.5892 18.8106 53.865 18.3179 54.356L3.83687 68.837C3.34585 69.3298 3.07019 69.9972 3.07031 70.6928C3.07043 71.3885 3.34632 72.0557 3.83751 72.5483L11.2626 79.9734ZM29.4543 13.5204C33.4926 9.48208 38.6377 6.73193 44.239 5.61773C49.8402 4.50353 55.6461 5.07533 60.9224 7.26082C66.1987 9.44632 70.7085 13.1473 73.8813 17.8959C77.0542 22.6444 78.7477 28.2272 78.7477 33.9382C78.7477 39.6492 77.0542 45.232 73.8813 49.9805C70.7085 54.729 66.1987 58.43 60.9224 60.6155C55.6461 62.801 49.8402 63.3728 44.239 62.2586C38.6377 61.1444 33.4926 58.3943 29.4543 54.3559C26.7623 51.6807 24.6258 48.4995 23.168 44.9954C21.7101 41.4913 20.9595 37.7335 20.9595 33.9382C20.9595 30.1429 21.7101 26.3851 23.168 22.881C24.6258 19.3769 26.7623 16.1957 29.4543 13.5204ZM25.8365 54.2619C26.399 54.9264 26.9719 55.5855 27.5984 56.2119C28.2251 56.8386 28.8843 57.4117 29.549 57.9745L27.5985 59.925L23.8861 56.2123L25.8365 54.2619ZM20.1739 56.2119L27.5984 63.637L13.1198 78.1181L5.69347 70.6924L20.1739 56.2119Z" fill="#5682FF"/>
</svg>
