<svg width="84" height="84" viewBox="0 0 84 84" fill="none" xmlns="http://www.w3.org/2000/svg">
<g clip-path="url(#clip0_4629_18835)">
<path d="M20.6641 46.72V70.59C20.6628 71.1345 20.7689 71.6739 20.9763 72.1774C21.1838 72.6808 21.4885 73.1384 21.8731 73.5239C22.2577 73.9094 22.7145 74.2152 23.2175 74.4239C23.7204 74.6326 24.2596 74.74 24.8041 74.74H40.8041" stroke="#5682FF" stroke-width="2.46" stroke-linecap="round" stroke-linejoin="round"/>
<path d="M20.6641 26.47V4.15C20.6628 3.60549 20.7689 3.06606 20.9763 2.56262C21.1838 2.05918 21.4885 1.60161 21.8731 1.21611C22.2577 0.830617 22.7145 0.524772 23.2175 0.316092C23.7204 0.107413 24.2596 -1.58846e-06 24.8041 0H61.8041C62.3491 0 62.8887 0.107343 63.3922 0.3159C63.8957 0.524457 64.3532 0.830143 64.7386 1.21551C65.1239 1.60087 65.4296 2.05836 65.6382 2.56186C65.8467 3.06536 65.9541 3.60501 65.9541 4.15V70.59C65.9541 71.6907 65.5168 72.7462 64.7386 73.5245C63.9603 74.3028 62.9047 74.74 61.8041 74.74H45.8041" stroke="#5682FF" stroke-width="2.46" stroke-linecap="round" stroke-linejoin="round"/>
<path d="M43.312 66.8C42.871 66.8 42.4398 66.9308 42.0731 67.1759C41.7064 67.4209 41.4206 67.7692 41.2518 68.1767C41.083 68.5841 41.0388 69.0325 41.1249 69.4651C41.2109 69.8977 41.4233 70.295 41.7352 70.6069C42.0471 70.9188 42.4444 71.1312 42.877 71.2172C43.3096 71.3032 43.7579 71.2591 44.1654 71.0903C44.5729 70.9215 44.9212 70.6357 45.1662 70.269C45.4112 69.9022 45.542 69.4711 45.542 69.0301C45.542 68.4386 45.3071 67.8714 44.8889 67.4532C44.4707 67.035 43.9035 66.8 43.312 66.8Z" stroke="#5682FF" stroke-width="2.46" stroke-linecap="round" stroke-linejoin="round"/>
<path d="M65.9441 63.37H20.6641" stroke="#5682FF" stroke-width="2.46" stroke-linecap="round" stroke-linejoin="round"/>
<path d="M43.3092 15.98C41.7313 15.9899 40.1915 16.4662 38.8836 17.3491C37.5757 18.2319 36.5581 19.4818 35.9588 20.9416C35.3595 22.4013 35.2053 24.0057 35.5156 25.5529C35.8258 27.1001 36.5867 28.5209 37.7025 29.6367C38.8183 30.7525 40.2392 31.5134 41.7864 31.8237C43.3335 32.134 44.9379 31.9797 46.3977 31.3805C47.8574 30.7812 49.1073 29.7636 49.9902 28.4556C50.873 27.1477 51.3493 25.608 51.3592 24.03C51.3659 22.971 51.1622 21.9212 50.76 20.9416C50.3578 19.9619 49.7651 19.0718 49.0162 18.323C48.2674 17.5742 47.3773 16.9815 46.3977 16.5793C45.418 16.1771 44.3682 15.9734 43.3092 15.98Z" stroke="#5682FF" stroke-width="2.46" stroke-linecap="round" stroke-linejoin="round"/>
<path d="M43.3119 20.06C42.7897 20.06 42.2793 20.2148 41.8452 20.5049C41.411 20.795 41.0726 21.2073 40.8728 21.6897C40.673 22.1721 40.6207 22.7029 40.7226 23.215C40.8245 23.7271 41.0759 24.1975 41.4451 24.5668C41.8143 24.936 42.2847 25.1874 42.7968 25.2893C43.3089 25.3911 43.8398 25.3389 44.3222 25.139C44.8046 24.9392 45.2169 24.6008 45.507 24.1667C45.797 23.7326 45.9519 23.2221 45.9519 22.7C45.9519 21.9998 45.6737 21.3283 45.1786 20.8332C44.6835 20.3381 44.0121 20.06 43.3119 20.06V20.06Z" stroke="#5682FF" stroke-width="2.46" stroke-linecap="round" stroke-linejoin="round"/>
<path d="M43.3111 32.07C44.8562 32.0659 46.3671 31.6143 47.6611 30.77C47.2068 30.0098 46.563 29.3803 45.7926 28.9433C45.0223 28.5062 44.1518 28.2765 43.2661 28.2765C42.3804 28.2765 41.5099 28.5062 40.7396 28.9433C39.9692 29.3803 39.3254 30.0098 38.8711 30.77C40.1923 31.6279 41.7359 32.0799 43.3111 32.07V32.07Z" stroke="#5682FF" stroke-width="2.46" stroke-linecap="round" stroke-linejoin="round"/>
<path d="M41.3125 5.41998H45.3125" stroke="#5682FF" stroke-width="2.46" stroke-linecap="round" stroke-linejoin="round"/>
<path d="M49.7528 43.49H36.8628C36.6683 43.4874 36.4826 43.4083 36.346 43.2698C36.2094 43.1313 36.1328 42.9446 36.1328 42.75V38.82C36.1328 38.6264 36.2097 38.4407 36.3466 38.3038C36.4835 38.1669 36.6692 38.09 36.8628 38.09H49.7528C49.9464 38.09 50.1321 38.1669 50.269 38.3038C50.4059 38.4407 50.4828 38.6264 50.4828 38.82V42.75C50.4841 42.8467 50.4662 42.9427 50.4301 43.0325C50.394 43.1222 50.3405 43.2038 50.2726 43.2727C50.2046 43.3415 50.1237 43.3962 50.0345 43.4335C49.9453 43.4708 49.8495 43.49 49.7528 43.49V43.49Z" stroke="#5682FF" stroke-width="2.46" stroke-linecap="round" stroke-linejoin="round"/>
<path d="M36.1314 50.23C36.1314 50.0364 36.2083 49.8507 36.3452 49.7138C36.4821 49.5769 36.6678 49.5 36.8614 49.5H49.7514C49.945 49.5 50.1307 49.5769 50.2676 49.7138C50.4045 49.8507 50.4814 50.0364 50.4814 50.23V54.16C50.4827 54.2567 50.4648 54.3527 50.4287 54.4424C50.3926 54.5322 50.3391 54.6138 50.2712 54.6827C50.2032 54.7515 50.1223 54.8062 50.0331 54.8435C49.9439 54.8808 49.8481 54.9 49.7514 54.9H27.9414" stroke="#5682FF" stroke-width="2.46" stroke-linecap="round" stroke-linejoin="round"/>
<path d="M55.832 25.37H81.432" stroke="#5682FF" stroke-width="2.46" stroke-linecap="round" stroke-linejoin="round"/>
<path d="M81.4297 21.03H73.4297" stroke="#5682FF" stroke-width="2.46" stroke-linecap="round" stroke-linejoin="round"/>
<path d="M81.4297 16.72H73.4297" stroke="#5682FF" stroke-width="2.46" stroke-linecap="round" stroke-linejoin="round"/>
<path d="M55.832 52.05H81.432" stroke="#5682FF" stroke-width="2.46" stroke-linecap="round" stroke-linejoin="round"/>
<path d="M81.4297 47.74H73.4297" stroke="#5682FF" stroke-width="2.46" stroke-linecap="round" stroke-linejoin="round"/>
<path d="M81.4297 43.43H73.4297" stroke="#5682FF" stroke-width="2.46" stroke-linecap="round" stroke-linejoin="round"/>
<path d="M11.4938 10.55L11.1538 9.97001C10.7691 9.30355 10.2568 8.71941 9.64627 8.25093C9.03574 7.78244 8.33892 7.4388 7.59559 7.23962C6.09436 6.83736 4.49482 7.04793 3.14884 7.82501C1.80287 8.6021 0.82072 9.88204 0.418454 11.3833C0.0161885 12.8845 0.226759 14.484 1.00384 15.83L1.33384 16.42" stroke="#5682FF" stroke-width="2.46" stroke-linecap="round" stroke-linejoin="round"/>
<path d="M23.2617 48.5L28.2617 45.58" stroke="#5682FF" stroke-width="2.46" stroke-linecap="round" stroke-linejoin="round"/>
<path d="M14.5117 27.51L22.6617 41.66" stroke="#5682FF" stroke-width="2.46" stroke-linecap="round" stroke-linejoin="round"/>
<path d="M9.21875 18.37L11.9987 23.19" stroke="#5682FF" stroke-width="2.46" stroke-linecap="round" stroke-linejoin="round"/>
<path d="M27.762 38.73C24.662 37.2767 22.962 38.2534 22.662 41.66C19.5687 40.2134 17.8754 41.19 17.582 44.59" stroke="#5682FF" stroke-width="2.46" stroke-linecap="round" stroke-linejoin="round"/>
<path d="M1.29155 16.44L11.5316 10.53C12.1701 10.206 12.9084 10.1389 13.5949 10.3426C14.2813 10.5462 14.8637 11.005 15.2222 11.6248C15.5808 12.2446 15.6883 12.9782 15.5226 13.6748C15.3569 14.3713 14.9307 14.978 14.3316 15.37L4.10155 21.3C3.45983 21.6321 2.71483 21.7043 2.02131 21.5015C1.32778 21.2986 0.739038 20.8365 0.37736 20.2109C0.0156815 19.5854 -0.0911295 18.8446 0.0791128 18.1424C0.249355 17.4401 0.683565 16.8305 1.29155 16.44V16.44Z" stroke="#5682FF" stroke-width="2.46" stroke-linecap="round" stroke-linejoin="round"/>
<path d="M14.2906 15.37L27.7606 38.73L28.6006 49.24C28.6244 49.52 28.5679 49.801 28.4379 50.0501C28.3078 50.2992 28.1095 50.5062 27.8662 50.6467C27.6228 50.7873 27.3445 50.8557 27.0637 50.8438C26.7829 50.832 26.5113 50.7405 26.2806 50.58L17.6006 44.58L4.14062 21.27L14.2906 15.37Z" stroke="#5682FF" stroke-width="2.46" stroke-linecap="round" stroke-linejoin="round"/>
</g>
<defs>
<clipPath id="clip0_4629_18835">
<rect width="84" height="84" fill="white"/>
</clipPath>
</defs>
</svg>
