<svg width="84" height="84" viewBox="0 0 84 84" fill="none" xmlns="http://www.w3.org/2000/svg">
<g clip-path="url(#clip0_4630_19071)">
<path d="M35.2108 36.1048C33.0305 36.1048 30.9198 35.326 29.2668 33.912C27.2187 32.1699 26.043 29.6269 26.043 26.9367C26.043 21.8812 30.1557 17.7686 35.2111 17.7686C40.2665 17.7686 44.3787 21.8815 44.3787 26.9369C44.3787 29.625 43.2029 32.1679 41.1521 33.914C39.5051 35.3262 37.3936 36.1048 35.2108 36.1048ZM35.2108 20.4355C31.6263 20.4355 28.7094 23.3521 28.7094 26.9369C28.7094 28.8437 29.5433 30.6464 30.9973 31.8835C33.345 33.8914 37.0871 33.8867 39.4199 31.8867C40.8783 30.6452 41.7122 28.8417 41.7122 26.9369C41.712 23.3521 38.7954 20.4355 35.2108 20.4355Z" fill="#5682FF"/>
<path d="M47.5158 48.5631H44.8491V41.1647C44.8491 38.2421 43.1303 35.6132 40.5058 34.4193C37.4251 36.6044 32.9909 36.6009 29.9186 34.4201C27.2949 35.6142 25.5768 38.2424 25.5768 41.1649V48.5634H22.9102V41.1649C22.9102 36.8706 25.6387 33.0426 29.7 31.6389C30.1491 31.4871 30.6434 31.5783 31.0034 31.887C33.336 33.8865 37.0803 33.8897 39.4233 31.8863C39.7812 31.5783 40.2768 31.4853 40.7254 31.6389C44.7867 33.0419 47.5158 36.8699 47.5158 41.1649V48.5631Z" fill="#5682FF"/>
<path d="M12.9344 51.2871C9.2723 46.3835 7.33594 40.5488 7.33594 34.414C7.33594 18.8541 19.9942 6.19531 35.5534 6.19531C38.8407 6.19531 42.0601 6.75523 45.1217 7.85991L44.2168 10.3684C41.446 9.36827 38.5311 8.86176 35.5534 8.86176C21.4648 8.86176 10.0026 20.3247 10.0026 34.4138C10.0026 39.9693 11.7552 45.2517 15.071 49.6906L12.9344 51.2871Z" fill="#5682FF"/>
<path d="M40.9181 62.1202L40.4141 59.5017C52.4016 57.1918 61.1022 46.6405 61.1022 34.4125C61.1022 33.0733 60.9966 31.7237 60.789 30.4021L63.4231 29.988C63.6524 31.4465 63.7689 32.9347 63.7689 34.4125C63.7689 47.9166 54.1589 59.5696 40.9181 62.1202Z" fill="#5682FF"/>
<path d="M52.9922 55.1582L54.8774 53.273L61.9518 60.3474L60.0666 62.2326L52.9922 55.1582Z" fill="#5682FF"/>
<path d="M67.153 77.8048L57.5052 68.1563C56.8067 67.4583 56.4219 66.53 56.4219 65.5418C56.4219 64.5536 56.8067 63.6251 57.5052 62.9265L62.6503 57.7819C64.0488 56.3849 66.4835 56.3849 67.8808 57.7819L78.9441 68.8452L77.0586 70.7306L65.9949 59.6674C65.6044 59.2769 64.9265 59.2774 64.536 59.6681L59.3909 64.8127C59.1956 65.008 59.0888 65.267 59.0888 65.5418C59.0888 65.8165 59.1956 66.0756 59.3909 66.2709L69.0387 75.9194L67.153 77.8048Z" fill="#5682FF"/>
<path d="M80.6692 27.5287H48.6692C47.9329 27.5287 47.3359 26.9317 47.3359 26.1954V10.1953C47.3359 9.45899 47.9329 8.86206 48.6692 8.86206H80.6692C81.4055 8.86206 82.0024 9.45899 82.0024 10.1953V26.1952C82.0024 26.9317 81.4055 27.5287 80.6692 27.5287ZM50.0024 24.862H79.3357V11.5285H50.0024V24.862Z" fill="#5682FF"/>
<path d="M52.6641 14.1951H76.664V16.8618H52.6641V14.1951Z" fill="#5682FF"/>
<path d="M52.6641 19.5286H65.9975V22.1953H52.6641V19.5286Z" fill="#5682FF"/>
<path d="M68.6641 19.5286H76.6641V22.1953H68.6641V19.5286Z" fill="#5682FF"/>
<path d="M35.3333 71.5286H3.33322C2.59693 71.5286 2 70.9322 2 70.1954V54.1955C2 53.4592 2.59693 52.8623 3.33322 52.8623H35.3333C36.0696 52.8623 36.6665 53.4592 36.6665 54.1955V70.1954C36.6667 70.9322 36.0698 71.5286 35.3333 71.5286ZM4.66669 68.862H34V55.5285H4.66669V68.862Z" fill="#5682FF"/>
<path d="M7.33594 58.1951H31.3359V60.8618H7.33594V58.1951Z" fill="#5682FF"/>
<path d="M7.33594 63.5286H20.6694V66.1953H7.33594V63.5286Z" fill="#5682FF"/>
<path d="M23.3359 63.5286H31.336V66.1953H23.3359V63.5286Z" fill="#5682FF"/>
</g>
<defs>
<clipPath id="clip0_4630_19071">
<rect width="80" height="80" fill="white" transform="translate(2 2)"/>
</clipPath>
</defs>
</svg>
