<svg width="85" height="81" viewBox="0 0 85 81" fill="none" xmlns="http://www.w3.org/2000/svg">
<g clip-path="url(#clip0_5049_17988)">
<path d="M1.64844 23.53H76.3784" stroke="white" stroke-width="3.31" stroke-linecap="round" stroke-linejoin="round"/>
<path d="M15.3492 16.55C16.121 16.55 16.8754 16.321 17.517 15.892C18.1586 15.4631 18.6584 14.8534 18.9533 14.1401C19.2482 13.4269 19.3248 12.6423 19.1735 11.8855C19.0223 11.1287 18.6498 10.4338 18.1034 9.88875C17.557 9.34372 16.8611 8.97307 16.1039 8.82372C15.3468 8.67437 14.5623 8.75303 13.8498 9.04975C13.1374 9.34647 12.529 9.84789 12.1016 10.4906C11.6743 11.1332 11.4473 11.8882 11.4492 12.66C11.4519 13.6926 11.8639 14.682 12.595 15.4113C13.3262 16.1405 14.3166 16.55 15.3492 16.55V16.55Z" stroke="white" stroke-width="3.31" stroke-linecap="round" stroke-linejoin="round"/>
<path d="M49.2185 8.75994H63.8985C64.8974 8.81057 65.8387 9.24303 66.5277 9.96793C67.2168 10.6928 67.6011 11.6548 67.6011 12.6549C67.6011 13.6551 67.2168 14.6171 66.5277 15.342C65.8387 16.0669 64.8974 16.4993 63.8985 16.5499H49.2185C48.6904 16.5767 48.1624 16.4958 47.6665 16.3121C47.1707 16.1285 46.7173 15.8459 46.3341 15.4816C45.9508 15.1173 45.6457 14.6788 45.4371 14.1929C45.2286 13.707 45.1211 13.1837 45.1211 12.6549C45.1211 12.1262 45.2286 11.6029 45.4371 11.117C45.6457 10.6311 45.9508 10.1926 46.3341 9.82829C46.7173 9.46397 47.1707 9.1814 47.6665 8.99774C48.1624 8.81408 48.6904 8.73318 49.2185 8.75994V8.75994Z" stroke="white" stroke-width="3.31" stroke-linecap="round" stroke-linejoin="round"/>
<path d="M29.7399 16.55C30.5116 16.55 31.2661 16.321 31.9076 15.892C32.5492 15.4631 33.049 14.8534 33.3439 14.1401C33.6388 13.4269 33.7155 12.6423 33.5642 11.8855C33.4129 11.1287 33.0404 10.4338 32.494 9.88875C31.9476 9.34372 31.2517 8.97307 30.4946 8.82372C29.7374 8.67437 28.9529 8.75303 28.2404 9.04975C27.528 9.34647 26.9196 9.84789 26.4923 10.4906C26.0649 11.1332 25.8379 11.8882 25.8399 12.66C25.8425 13.6926 26.2546 14.682 26.9857 15.4113C27.7168 16.1405 28.7072 16.55 29.7399 16.55V16.55Z" stroke="white" stroke-width="3.31" stroke-linecap="round" stroke-linejoin="round"/>
<path d="M26.6572 36.15L23.3672 49.89" stroke="white" stroke-width="3.31" stroke-linecap="round" stroke-linejoin="round"/>
<path d="M34.2188 48.65L38.8587 43.44C38.9593 43.3251 39.0148 43.1776 39.0148 43.025C39.0148 42.8723 38.9593 42.7248 38.8587 42.61L34.2188 37.39" stroke="white" stroke-width="3.31" stroke-linecap="round" stroke-linejoin="round"/>
<path d="M15.8077 48.65L11.1677 43.44C11.0672 43.3251 11.0117 43.1776 11.0117 43.025C11.0117 42.8723 11.0672 42.7248 11.1677 42.61L15.8077 37.39" stroke="white" stroke-width="3.31" stroke-linecap="round" stroke-linejoin="round"/>
<path d="M66.3792 43.4C68.1516 43.7952 69.8429 44.492 71.3792 45.46L72.7292 44.12C72.9196 43.9295 73.1456 43.7784 73.3944 43.6753C73.6432 43.5722 73.9099 43.5191 74.1792 43.5191C74.4485 43.5191 74.7152 43.5722 74.964 43.6753C75.2128 43.7784 75.4388 43.9295 75.6292 44.12L77.7392 46.23C77.9297 46.4204 78.0808 46.6464 78.1839 46.8952C78.287 47.144 78.3401 47.4107 78.3401 47.68C78.3401 47.9493 78.287 48.216 78.1839 48.4648C78.0808 48.7136 77.9297 48.9396 77.7392 49.13L76.3992 50.48C77.344 51.9963 78.0205 53.664 78.3992 55.41H80.3092C80.8446 55.4123 81.3582 55.6219 81.7423 55.9948C82.1264 56.3677 82.3511 56.8749 82.3692 57.41V60.41C82.3536 60.9459 82.1297 61.4546 81.7451 61.828C81.3604 62.2014 80.8453 62.4102 80.3092 62.41H78.4192C78.0365 64.1484 77.3601 65.8089 76.4192 67.32L77.7592 68.66C77.9497 68.8504 78.1008 69.0764 78.2039 69.3252C78.307 69.574 78.3601 69.8407 78.3601 70.11C78.3601 70.3793 78.307 70.646 78.2039 70.8948C78.1008 71.1436 77.9497 71.3696 77.7592 71.56L75.6092 73.78C75.4188 73.9705 75.1928 74.1216 74.944 74.2247C74.6952 74.3278 74.4285 74.3809 74.1592 74.3809C73.8899 74.3809 73.6232 74.3278 73.3744 74.2247C73.1256 74.1216 72.8996 73.9705 72.7092 73.78L71.3592 72.44C69.8419 73.3828 68.1745 74.0592 66.4292 74.44V76.35C66.4165 76.8764 66.2017 77.3778 65.8294 77.7502C65.457 78.1225 64.9557 78.3373 64.4292 78.35H61.4292C60.9036 78.3349 60.4036 78.1193 60.0317 77.7475C59.6599 77.3756 59.4443 76.8757 59.4292 76.35V74.48C57.6893 74.0921 56.0264 73.4161 54.5092 72.48L53.1692 73.82C52.9788 74.0105 52.7528 74.1616 52.504 74.2647C52.2552 74.3678 51.9885 74.4209 51.7192 74.4209C51.4499 74.4209 51.1832 74.3678 50.9344 74.2647C50.6856 74.1616 50.4596 74.0105 50.2692 73.82L48.0092 71.66C47.8187 71.4696 47.6676 71.2436 47.5645 70.9948C47.4614 70.746 47.4084 70.4793 47.4084 70.21C47.4084 69.9407 47.4614 69.674 47.5645 69.4252C47.6676 69.1764 47.8187 68.9504 48.0092 68.76L49.3492 67.42C48.4125 65.9068 47.7364 64.2471 47.3492 62.51H45.4492C44.9228 62.4973 44.4214 62.2825 44.0491 61.9102C43.6767 61.5378 43.4619 61.0364 43.4492 60.51V57.51C43.4643 56.9843 43.6799 56.4844 44.0517 56.1125C44.4236 55.7407 44.9236 55.5251 45.4492 55.51H47.3492C47.7372 53.7826 48.4133 52.1329 49.3492 50.63L48.0092 49.18C47.8187 48.9896 47.6676 48.7636 47.5645 48.5148C47.4614 48.266 47.4084 47.9993 47.4084 47.73C47.4084 47.4607 47.4614 47.194 47.5645 46.9452C47.6676 46.6964 47.8187 46.4704 48.0092 46.28L50.1292 44.16C50.3196 43.9695 50.5456 43.8184 50.7944 43.7153C51.0432 43.6122 51.3099 43.5591 51.5792 43.5591C51.8485 43.5591 52.1152 43.6122 52.364 43.7153C52.6128 43.8184 52.8388 43.9695 53.0292 44.16L54.3592 45.49C55.8724 44.5329 57.5355 43.8365 59.2792 43.43V41.54C59.2791 41.0049 59.4882 40.4909 59.8619 40.1078C60.2356 39.7248 60.7442 39.503 61.2792 39.49H64.2792C64.8238 39.49 65.3463 39.7056 65.7323 40.0898C66.1184 40.474 66.3366 40.9954 66.3392 41.54L66.3792 43.4Z" stroke="white" stroke-width="3.31" stroke-linecap="round" stroke-linejoin="round"/>
<path d="M62.878 50.5099C64.5512 50.5099 66.1869 51.0061 67.5781 51.9357C68.9693 52.8653 70.0537 54.1866 70.694 55.7324C71.3343 57.2783 71.5018 58.9793 71.1754 60.6204C70.849 62.2615 70.0432 63.7689 68.8601 64.9521C67.6769 66.1352 66.1695 66.941 64.5284 67.2674C62.8874 67.5938 61.1863 67.4263 59.6405 66.786C58.0946 66.1457 56.7733 65.0613 55.8437 63.6701C54.9141 62.2788 54.418 60.6432 54.418 58.9699C54.418 56.7262 55.3093 54.5744 56.8958 52.9878C58.4824 51.4013 60.6342 50.5099 62.878 50.5099V50.5099Z" stroke="white" stroke-width="3.31" stroke-linecap="round" stroke-linejoin="round"/>
<path d="M17.4684 62.51H7.75844C4.39844 62.51 1.64844 59.23 1.64844 55.21V8.95997C1.64844 4.95997 4.39844 1.65997 7.75844 1.65997H70.2684C73.6384 1.65997 76.3784 4.94997 76.3784 8.95997V44.9M45.4484 62.51H32.1284" stroke="white" stroke-width="3.31" stroke-linecap="round" stroke-linejoin="round"/>
</g>
<defs>
<clipPath id="clip0_5049_17988">
<rect width="84.03" height="80.09" fill="white"/>
</clipPath>
</defs>
</svg>
