<svg width="80" height="80" viewBox="0 0 80 80" fill="none" xmlns="http://www.w3.org/2000/svg">
<path d="M73.8888 51.855C74.5725 50.9988 75 49.9288 75 48.75C75 45.9925 72.7575 43.75 70 43.75C67.2425 43.75 65 45.9925 65 48.75C65 49.9288 65.4275 50.9988 66.1112 51.855C63.985 52.8538 62.5 55 62.5 57.5V63.75C62.5 64.2237 62.7675 64.6562 63.1913 64.8688L65 65.7725V76.25C65 76.94 65.5588 77.5 66.25 77.5H73.75C74.4412 77.5 75 76.94 75 76.25V65.7725L76.8087 64.8675C77.2325 64.6563 77.5 64.2237 77.5 63.75V57.5C77.5 55 76.015 52.8538 73.8888 51.855ZM70 46.25C71.3787 46.25 72.5 47.3712 72.5 48.75C72.5 50.1287 71.3787 51.25 70 51.25C68.6213 51.25 67.5 50.1287 67.5 48.75C67.5 47.3712 68.6213 46.25 70 46.25ZM75 62.9775L73.1913 63.8825C72.7675 64.0937 72.5 64.5263 72.5 65V75H67.5V65C67.5 64.5263 67.2325 64.0938 66.8087 63.8812L65 62.9775V57.5C65 55.4325 66.6825 53.75 68.75 53.75H71.25C73.3175 53.75 75 55.4325 75 57.5V62.9775Z" fill="white"/>
<path d="M38.75 27.5C38.4938 27.5 38.2438 27.5788 38.0338 27.7263L25.5338 36.4763C25.25 36.675 25.0625 36.9813 25.0125 37.3225C24.9638 37.6638 25.0588 38.0113 25.2738 38.2813L30.2738 44.5313C30.52 44.8388 30.8838 45 31.2513 45C31.515 45 31.7825 44.9163 32.0075 44.7438L41.505 37.5H52.5C52.8575 37.5 53.2 37.3463 53.4363 37.0775L72.2538 15.7875L74.8488 18.3838C75.2013 18.7363 75.7288 18.845 76.1888 18.6638C76.6513 18.4813 76.9625 18.0438 76.9813 17.5463L77.4988 3.79628C77.5138 3.41003 77.3488 3.03878 77.0525 2.79003C76.755 2.54253 76.3588 2.44378 75.9825 2.52878L62.2325 5.54628C61.7638 5.65003 61.3938 6.01253 61.2838 6.48128C61.1738 6.95003 61.3425 7.44003 61.7175 7.74128L65.035 10.4113L48.2263 27.5H38.75ZM49.6413 29.6263L67.785 11.18C68.0325 10.9288 68.1625 10.5838 68.1413 10.2313C68.1213 9.87878 67.9525 9.55128 67.6775 9.33003L65.3163 7.42878L74.94 5.31753L74.5913 14.59L73.0813 13.08C72.8388 12.8363 72.5113 12.7 72.16 12.715C71.815 12.725 71.49 12.8775 71.2613 13.1363L51.9363 35H41.0825C40.8088 35 40.5413 35.09 40.325 35.2563L31.4638 42.015L28.0588 37.76L39.1438 30H48.75C49.0863 30 49.4063 29.8663 49.6413 29.6263Z" fill="white"/>
<path d="M3.75 52.5H7.37C7.885 54.2262 8.57375 55.89 9.4275 57.4675L6.86875 60.0262C6.63375 60.2612 6.5025 60.5788 6.5025 60.91C6.5025 61.2412 6.63375 61.56 6.86875 61.7938L15.7075 70.6325C16.1962 71.1213 16.9862 71.1213 17.475 70.6325L20.0338 68.075C21.6112 68.9287 23.275 69.6175 25.0012 70.1312V73.75C25.0012 74.44 25.56 75 26.2512 75H38.7513C39.4425 75 40.0013 74.44 40.0013 73.75V70.13C41.7275 69.6162 43.3912 68.9275 44.9688 68.0737L47.5275 70.6313C48.0163 71.12 48.8063 71.12 49.295 70.6313L58.1338 61.7925C58.3688 61.5575 58.5 61.24 58.5 60.9088C58.5 60.5775 58.3688 60.2588 58.1338 60.025L55.575 57.4662C56.4287 55.8887 57.1162 54.225 57.6325 52.4987H61.25C61.9412 52.4987 62.5 51.9388 62.5 51.2487V38.75C62.5 38.06 61.9412 37.5 61.25 37.5H56.6813V40H60V50H56.6813C56.1113 50 55.6138 50.3862 55.4712 50.9375C54.915 53.09 54.0638 55.1438 52.9425 57.045C52.6538 57.5363 52.7325 58.1613 53.135 58.5638L55.4812 60.91L48.41 67.9812L46.0638 65.635C45.6625 65.2313 45.035 65.1525 44.5437 65.4425C42.6425 66.565 40.5887 67.4162 38.4375 67.97C37.8862 68.1125 37.5 68.61 37.5 69.18V72.5H27.5V69.18C27.5 68.61 27.1138 68.1125 26.5625 67.97C24.4112 67.4162 22.3575 66.565 20.4562 65.4425C19.9662 65.1525 19.34 65.2313 18.9363 65.635L16.59 67.9812L9.51875 60.91L11.865 58.5638C12.2675 58.16 12.3475 57.535 12.0575 57.045C10.9362 55.1438 10.085 53.09 9.52875 50.9375C9.3875 50.3862 8.88875 50 8.31875 50H5V40H8.31875C8.88875 40 9.38625 39.6138 9.52875 39.0625C10.085 36.91 10.9362 34.8563 12.0575 32.955C12.3462 32.4638 12.2675 31.8388 11.865 31.4363L9.51875 29.09L16.59 22.0187L18.9363 24.365C19.34 24.77 19.9662 24.8488 20.4562 24.5575C22.355 23.435 24.4088 22.585 26.5625 22.03C27.1138 21.8875 27.5 21.39 27.5 20.82V17.5H37.5V20.82C37.5 21.39 37.8862 21.8875 38.4375 22.03C40.5913 22.585 42.645 23.435 44.5437 24.5575C45.035 24.8488 45.6625 24.77 46.0638 24.365L48.41 22.0187L49.1162 22.725L50.8838 20.9575L49.2938 19.3675C48.805 18.8788 48.015 18.8788 47.5262 19.3675L44.9675 21.925C43.3913 21.0713 41.7275 20.3825 40 19.8688V16.25C40 15.56 39.4412 15 38.75 15H26.25C25.5588 15 25 15.56 25 16.25V19.87C23.2725 20.3837 21.6087 21.0725 20.0325 21.9263L17.4738 19.3687C16.985 18.88 16.195 18.88 15.7062 19.3687L6.8675 28.2075C6.6325 28.4425 6.50125 28.76 6.50125 29.0913C6.50125 29.4225 6.6325 29.7412 6.8675 29.975L9.42625 32.5338C8.5725 34.11 7.885 35.7738 7.37 37.5H3.75C3.05875 37.5 2.5 38.06 2.5 38.75V51.25C2.5 51.94 3.05875 52.5 3.75 52.5Z" fill="white"/>
<path d="M32.5 26.25C22.1613 26.25 13.75 34.6613 13.75 45C13.75 55.3387 22.1613 63.75 32.5 63.75C42.8387 63.75 51.25 55.3387 51.25 45C51.25 43.175 50.9887 41.3725 50.4725 39.6425L48.0775 40.3562C48.5238 41.855 48.75 43.4163 48.75 45C48.75 53.96 41.46 61.25 32.5 61.25C23.54 61.25 16.25 53.96 16.25 45C16.25 36.04 23.54 28.75 32.5 28.75V26.25Z" fill="white"/>
<path d="M23.75 52.5H26.25V56.25H23.75V52.5Z" fill="white"/>
<path d="M28.75 50H31.25V56.25H28.75V50Z" fill="white"/>
<path d="M33.75 47.5H36.25V56.25H33.75V47.5Z" fill="white"/>
<path d="M38.75 43.75H41.25V56.25H38.75V43.75Z" fill="white"/>
</svg>
