<svg width="775" height="173" viewBox="0 0 775 173" fill="none" xmlns="http://www.w3.org/2000/svg">
<path d="M0 133.354V7.20833H30.8733V106.323H87.5348V133.354H0Z" fill="white"/>
<path d="M149.979 135.156C139.325 135.156 130.063 133.054 122.193 128.849C114.324 124.524 108.21 118.697 103.851 111.369C99.4925 103.92 97.3132 95.4503 97.3132 85.9594C97.3132 78.6309 98.5239 71.9031 100.945 65.776C103.367 59.649 106.757 54.3628 111.115 49.9177C115.474 45.3524 120.62 41.8684 126.552 39.4656C132.606 36.9427 139.204 35.6812 146.347 35.6812C153.127 35.6812 159.302 36.8826 164.871 39.2854C170.562 41.6882 175.465 45.0521 179.581 49.3771C183.698 53.7021 186.846 58.808 189.025 64.6948C191.204 70.5816 192.173 77.009 191.931 83.9771L191.749 91.726H114.929L110.752 75.5073H168.14L165.053 78.9312V75.3271C164.811 72.3236 163.842 69.6805 162.147 67.3979C160.573 64.9951 158.454 63.133 155.791 61.8115C153.127 60.4899 150.1 59.8292 146.71 59.8292C141.989 59.8292 137.933 60.7903 134.543 62.7125C131.274 64.5146 128.792 67.2177 127.097 70.8219C125.402 74.3059 124.554 78.6309 124.554 83.7969C124.554 89.083 125.644 93.7083 127.823 97.6729C130.124 101.517 133.393 104.521 137.63 106.683C141.989 108.846 147.134 109.927 153.067 109.927C157.183 109.927 160.815 109.326 163.963 108.125C167.232 106.924 170.743 104.881 174.496 101.998L188.117 121.1C184.364 124.344 180.368 126.987 176.131 129.029C171.893 131.072 167.535 132.573 163.055 133.534C158.697 134.616 154.338 135.156 149.979 135.156Z" fill="white"/>
<path d="M238.272 133.354L197.955 37.6635H230.099L254.072 109.206L246.989 109.927L271.688 37.6635H303.469L261.154 133.354H238.272Z" fill="white"/>
<path d="M361.914 135.156C351.26 135.156 341.998 133.054 334.128 128.849C326.258 124.524 320.144 118.697 315.786 111.369C311.427 103.92 309.248 95.4503 309.248 85.9594C309.248 78.6309 310.458 71.9031 312.88 65.776C315.301 59.649 318.691 54.3628 323.05 49.9177C327.408 45.3524 332.554 41.8684 338.487 39.4656C344.54 36.9427 351.138 35.6812 358.282 35.6812C365.062 35.6812 371.236 36.8826 376.806 39.2854C382.496 41.6882 387.399 45.0521 391.516 49.3771C395.632 53.7021 398.78 58.808 400.96 64.6948C403.139 70.5816 404.107 77.009 403.865 83.9771L403.684 91.726H326.864L322.687 75.5073H380.075L376.987 78.9312V75.3271C376.745 72.3236 375.777 69.6805 374.082 67.3979C372.508 64.9951 370.389 63.133 367.725 61.8115C365.062 60.4899 362.035 59.8292 358.645 59.8292C353.923 59.8292 349.867 60.7903 346.477 62.7125C343.208 64.5146 340.726 67.2177 339.031 70.8219C337.336 74.3059 336.489 78.6309 336.489 83.7969C336.489 89.083 337.578 93.7083 339.758 97.6729C342.058 101.517 345.327 104.521 349.565 106.683C353.923 108.846 359.069 109.927 365.001 109.927C369.118 109.927 372.75 109.326 375.898 108.125C379.167 106.924 382.678 104.881 386.431 101.998L400.051 121.1C396.298 124.344 392.303 126.987 388.065 129.029C383.828 131.072 379.469 132.573 374.99 133.534C370.631 134.616 366.272 135.156 361.914 135.156Z" fill="white"/>
<path d="M422.559 133.354V0H451.617V133.354H422.559Z" fill="white"/>
<path d="M592.367 134.435C581.833 134.435 572.45 132.333 564.217 128.128C555.985 123.803 549.507 117.916 544.786 110.468C540.185 103.019 537.884 94.4892 537.884 84.8781V7.20833H569.121V83.2562C569.121 87.8215 570.15 91.9663 572.208 95.6906C574.266 99.2948 577.051 102.178 580.562 104.341C584.073 106.383 588.008 107.404 592.367 107.404C596.967 107.404 601.023 106.383 604.534 104.341C608.167 102.178 611.072 99.2948 613.252 95.6906C615.431 91.9663 616.52 87.8215 616.52 83.2562V7.20833H646.667V84.8781C646.667 94.4892 644.306 103.019 639.585 110.468C634.984 117.916 628.567 123.803 620.334 128.128C612.101 132.333 602.779 134.435 592.367 134.435Z" fill="white"/>
<path d="M674.571 173V37.6635H702.175L703.265 59.1083L697.817 57.4865C698.664 53.5219 700.722 49.9177 703.991 46.6739C707.26 43.4302 711.377 40.8472 716.341 38.925C721.426 36.8826 726.753 35.8615 732.322 35.8615C740.555 35.8615 747.88 38.024 754.297 42.349C760.714 46.5538 765.738 52.3806 769.37 59.8292C773.123 67.1576 775 75.6875 775 85.4187C775 95.0299 773.123 103.56 769.37 111.008C765.738 118.457 760.653 124.344 754.115 128.669C747.698 132.874 740.313 134.976 731.959 134.976C726.511 134.976 721.305 133.955 716.341 131.912C711.377 129.87 707.2 127.107 703.81 123.623C700.42 120.139 698.18 116.355 697.09 112.27L703.81 109.747V173H674.571ZM724.876 110.648C729.235 110.648 733.049 109.627 736.318 107.584C739.587 105.422 742.129 102.478 743.945 98.7542C745.761 95.0299 746.669 90.5847 746.669 85.4187C746.669 80.3729 745.761 75.9878 743.945 72.2635C742.129 68.4191 739.587 65.4757 736.318 63.4333C733.17 61.2708 729.356 60.1896 724.876 60.1896C720.397 60.1896 716.522 61.2108 713.253 63.2531C709.984 65.2955 707.442 68.2389 705.626 72.0833C703.81 75.9278 702.902 80.3729 702.902 85.4187C702.902 90.5847 703.81 95.0299 705.626 98.7542C707.442 102.478 709.984 105.422 713.253 107.584C716.522 109.627 720.397 110.648 724.876 110.648Z" fill="white"/>
</svg>
