<svg width="70" height="45" viewBox="0 0 70 45" fill="none" xmlns="http://www.w3.org/2000/svg">
<path d="M51.6673 8.02758H1.17293C0.951579 8.0308 0.736295 7.95533 0.565566 7.81468C0.394837 7.67403 0.279793 7.47736 0.240999 7.25984C0.202205 7.04231 0.24219 6.8181 0.353807 6.62729C0.465424 6.43648 0.641396 6.29151 0.850266 6.2183L17.8108 0.0585294C17.9117 0.0189088 18.0192 -0.000970285 18.1276 -2.35019e-05H68.6396C68.8609 -0.00323722 69.0762 0.072226 69.247 0.212876C69.4177 0.353526 69.5327 0.550194 69.5715 0.767723C69.6103 0.985252 69.5703 1.20946 69.4587 1.40027C69.3471 1.59108 69.1711 1.73605 68.9623 1.80926L51.9841 7.96903C51.8833 8.00865 51.7757 8.02853 51.6673 8.02758Z" fill="#221A16"/>
<path d="M51.6673 44.1665H1.17293C0.951579 44.1697 0.736295 44.0942 0.565566 43.9536C0.394837 43.8129 0.279793 43.6163 0.240999 43.3987C0.202205 43.1812 0.24219 42.957 0.353807 42.7662C0.465424 42.5754 0.641396 42.4304 0.850266 42.3572L17.8108 36.1974C17.9117 36.1578 18.0192 36.1379 18.1276 36.1389H68.6396C68.861 36.1357 69.0762 36.2111 69.247 36.3518C69.4177 36.4924 69.5327 36.6891 69.5715 36.9066C69.6103 37.1242 69.5703 37.3484 69.4587 37.5392C69.3471 37.73 69.1711 37.875 68.9623 37.9482L51.9841 44.1079C51.8833 44.1476 51.7757 44.1674 51.6673 44.1665Z" fill="#221A16"/>
<path d="M24.182 26.097H1.17293C0.951579 26.1002 0.736295 26.0248 0.565566 25.8841C0.394837 25.7435 0.279793 25.5468 0.240999 25.3293C0.202205 25.1117 0.24219 24.8875 0.353807 24.6967C0.465424 24.5059 0.641396 24.361 0.850266 24.2877L17.8108 18.1514C17.9117 18.1118 18.0192 18.0919 18.1276 18.0928H41.1367C41.3612 18.0851 41.581 18.1585 41.7557 18.2996C41.9303 18.4406 42.0481 18.6399 42.0873 18.8606C42.1266 19.0814 42.0847 19.3089 41.9693 19.5014C41.8539 19.6938 41.6728 19.8382 41.4593 19.908L24.4988 26.0385C24.3979 26.0781 24.2904 26.098 24.182 26.097Z" fill="#221A16"/>
</svg>
