<svg width="85" height="78" viewBox="0 0 85 78" fill="none" xmlns="http://www.w3.org/2000/svg">
<path d="M22.6602 48.72V72.59C22.6589 73.1345 22.765 73.6739 22.9724 74.1774C23.1799 74.6808 23.4846 75.1384 23.8692 75.5239C24.2538 75.9094 24.7106 76.2152 25.2135 76.4239C25.7165 76.6326 26.2557 76.74 26.8002 76.74H42.8002" stroke="white" stroke-width="2.46" stroke-linecap="round" stroke-linejoin="round"/>
<path d="M22.6602 28.47V6.15C22.6589 5.60549 22.765 5.06606 22.9724 4.56262C23.1799 4.05918 23.4846 3.60161 23.8692 3.21611C24.2538 2.83062 24.7106 2.52477 25.2135 2.31609C25.7165 2.10741 26.2557 2 26.8002 2H63.8002C64.3452 2 64.8848 2.10734 65.3883 2.3159C65.8918 2.52446 66.3493 2.83014 66.7347 3.21551C67.12 3.60087 67.4257 4.05836 67.6343 4.56186C67.8428 5.06536 67.9502 5.60501 67.9502 6.15V72.59C67.9502 73.6907 67.5129 74.7462 66.7347 75.5245C65.9564 76.3028 64.9008 76.74 63.8002 76.74H47.8002" stroke="white" stroke-width="2.46" stroke-linecap="round" stroke-linejoin="round"/>
<path d="M45.312 68.8C44.871 68.8 44.4398 68.9308 44.0731 69.1758C43.7064 69.4208 43.4206 69.7691 43.2518 70.1766C43.083 70.5841 43.0388 71.0325 43.1249 71.465C43.2109 71.8976 43.4233 72.295 43.7352 72.6068C44.0471 72.9187 44.4444 73.1311 44.877 73.2171C45.3096 73.3032 45.7579 73.259 46.1654 73.0902C46.5729 72.9215 46.9212 72.6356 47.1662 72.2689C47.4112 71.9022 47.542 71.471 47.542 71.03C47.542 70.4386 47.3071 69.8713 46.8889 69.4531C46.4707 69.0349 45.9035 68.8 45.312 68.8Z" stroke="white" stroke-width="2.46" stroke-linecap="round" stroke-linejoin="round"/>
<path d="M67.9402 65.37H22.6602" stroke="white" stroke-width="2.46" stroke-linecap="round" stroke-linejoin="round"/>
<path d="M45.3131 17.98C43.7352 17.9899 42.1954 18.4662 40.8875 19.3491C39.5796 20.2319 38.562 21.4818 37.9627 22.9416C37.3634 24.4013 37.2092 26.0057 37.5195 27.5529C37.8297 29.1001 38.5906 30.5209 39.7064 31.6367C40.8222 32.7525 42.2431 33.5134 43.7903 33.8237C45.3374 34.134 46.9418 33.9797 48.4016 33.3805C49.8613 32.7812 51.1112 31.7636 51.9941 30.4556C52.8769 29.1477 53.3532 27.608 53.3631 26.03C53.3698 24.971 53.1661 23.9212 52.7639 22.9416C52.3617 21.9619 51.769 21.0718 51.0201 20.323C50.2713 19.5742 49.3812 18.9815 48.4016 18.5793C47.4219 18.1771 46.3721 17.9734 45.3131 17.98Z" stroke="white" stroke-width="2.46" stroke-linecap="round" stroke-linejoin="round"/>
<path d="M45.3119 22.06C44.7897 22.06 44.2793 22.2148 43.8452 22.5049C43.411 22.795 43.0726 23.2073 42.8728 23.6897C42.673 24.1721 42.6207 24.7029 42.7226 25.215C42.8245 25.7271 43.0759 26.1975 43.4451 26.5668C43.8143 26.936 44.2847 27.1874 44.7968 27.2893C45.3089 27.3911 45.8398 27.3389 46.3222 27.139C46.8046 26.9392 47.2169 26.6008 47.507 26.1667C47.797 25.7326 47.9519 25.2221 47.9519 24.7C47.9519 23.9998 47.6737 23.3283 47.1786 22.8332C46.6835 22.3381 46.0121 22.06 45.3119 22.06V22.06Z" stroke="white" stroke-width="2.46" stroke-linecap="round" stroke-linejoin="round"/>
<path d="M45.3111 34.07C46.8562 34.0659 48.3671 33.6143 49.6611 32.77C49.2068 32.0098 48.563 31.3803 47.7926 30.9433C47.0223 30.5062 46.1518 30.2765 45.2661 30.2765C44.3804 30.2765 43.5099 30.5062 42.7396 30.9433C41.9692 31.3803 41.3254 32.0098 40.8711 32.77C42.1923 33.6279 43.7359 34.0799 45.3111 34.07V34.07Z" stroke="white" stroke-width="2.46" stroke-linecap="round" stroke-linejoin="round"/>
<path d="M43.3125 7.41998H47.3125" stroke="white" stroke-width="2.46" stroke-linecap="round" stroke-linejoin="round"/>
<path d="M51.7528 45.49H38.8628C38.6683 45.4874 38.4826 45.4083 38.346 45.2698C38.2094 45.1313 38.1328 44.9446 38.1328 44.75V40.82C38.1328 40.6264 38.2097 40.4407 38.3466 40.3038C38.4835 40.1669 38.6692 40.09 38.8628 40.09H51.7528C51.9464 40.09 52.1321 40.1669 52.269 40.3038C52.4059 40.4407 52.4828 40.6264 52.4828 40.82V44.75C52.4841 44.8467 52.4662 44.9427 52.4301 45.0325C52.394 45.1222 52.3405 45.2038 52.2726 45.2727C52.2046 45.3415 52.1237 45.3962 52.0345 45.4335C51.9453 45.4708 51.8495 45.49 51.7528 45.49V45.49Z" stroke="white" stroke-width="2.46" stroke-linecap="round" stroke-linejoin="round"/>
<path d="M38.1314 52.23C38.1314 52.0364 38.2083 51.8507 38.3452 51.7138C38.4821 51.5769 38.6678 51.5 38.8614 51.5H51.7514C51.945 51.5 52.1307 51.5769 52.2676 51.7138C52.4045 51.8507 52.4814 52.0364 52.4814 52.23V56.16C52.4827 56.2567 52.4648 56.3527 52.4287 56.4424C52.3926 56.5322 52.3391 56.6138 52.2712 56.6827C52.2032 56.7515 52.1223 56.8062 52.0331 56.8435C51.9439 56.8808 51.8481 56.9 51.7514 56.9H29.9414" stroke="white" stroke-width="2.46" stroke-linecap="round" stroke-linejoin="round"/>
<path d="M57.832 27.37H83.432" stroke="white" stroke-width="2.46" stroke-linecap="round" stroke-linejoin="round"/>
<path d="M83.4297 23.03H75.4297" stroke="white" stroke-width="2.46" stroke-linecap="round" stroke-linejoin="round"/>
<path d="M83.4297 18.72H75.4297" stroke="white" stroke-width="2.46" stroke-linecap="round" stroke-linejoin="round"/>
<path d="M57.832 54.05H83.432" stroke="white" stroke-width="2.46" stroke-linecap="round" stroke-linejoin="round"/>
<path d="M83.4297 49.74H75.4297" stroke="white" stroke-width="2.46" stroke-linecap="round" stroke-linejoin="round"/>
<path d="M83.4297 45.43H75.4297" stroke="white" stroke-width="2.46" stroke-linecap="round" stroke-linejoin="round"/>
<path d="M13.4899 12.55L13.1499 11.97C12.7652 11.3036 12.2529 10.7194 11.6424 10.2509C11.0318 9.78244 10.335 9.4388 9.59168 9.23962C8.09045 8.83736 6.49091 9.04793 5.14494 9.82501C3.79896 10.6021 2.81681 11.882 2.41455 13.3833C2.01228 14.8845 2.22285 16.484 2.99994 17.83L3.32994 18.42" stroke="white" stroke-width="2.46" stroke-linecap="round" stroke-linejoin="round"/>
<path d="M25.2617 50.5L30.2617 47.58" stroke="white" stroke-width="2.46" stroke-linecap="round" stroke-linejoin="round"/>
<path d="M16.5117 29.51L24.6617 43.66" stroke="white" stroke-width="2.46" stroke-linecap="round" stroke-linejoin="round"/>
<path d="M11.2227 20.37L14.0027 25.19" stroke="white" stroke-width="2.46" stroke-linecap="round" stroke-linejoin="round"/>
<path d="M29.762 40.73C26.662 39.2767 24.962 40.2534 24.662 43.66C21.5687 42.2134 19.8754 43.19 19.582 46.59" stroke="white" stroke-width="2.46" stroke-linecap="round" stroke-linejoin="round"/>
<path d="M3.29155 18.44L13.5316 12.53C14.1701 12.206 14.9084 12.1389 15.5949 12.3426C16.2813 12.5462 16.8637 13.005 17.2222 13.6248C17.5808 14.2446 17.6883 14.9782 17.5226 15.6748C17.3569 16.3713 16.9307 16.978 16.3316 17.37L6.10155 23.3C5.45983 23.6321 4.71483 23.7043 4.02131 23.5015C3.32778 23.2986 2.73904 22.8365 2.37736 22.2109C2.01568 21.5854 1.90887 20.8446 2.07911 20.1424C2.24936 19.4401 2.68357 18.8305 3.29155 18.44V18.44Z" stroke="white" stroke-width="2.46" stroke-linecap="round" stroke-linejoin="round"/>
<path d="M16.2906 17.37L29.7606 40.73L30.6006 51.24C30.6244 51.52 30.5679 51.801 30.4379 52.0501C30.3078 52.2992 30.1095 52.5062 29.8662 52.6467C29.6228 52.7873 29.3445 52.8557 29.0637 52.8438C28.7829 52.832 28.5113 52.7405 28.2806 52.58L19.6006 46.58L6.14062 23.27L16.2906 17.37Z" stroke="white" stroke-width="2.46" stroke-linecap="round" stroke-linejoin="round"/>
</svg>
