<svg width="80" height="72" viewBox="0 0 80 72" fill="none" xmlns="http://www.w3.org/2000/svg">
<path d="M33.2108 30.1049C31.0305 30.1049 28.9198 29.3261 27.2668 27.9122C25.2187 26.1701 24.043 23.6271 24.043 20.9368C24.043 15.8814 28.1557 11.7687 33.2111 11.7687C38.2665 11.7687 42.3787 15.8816 42.3787 20.937C42.3787 23.6251 41.2029 26.1681 39.1521 27.9142C37.5051 29.3264 35.3936 30.1049 33.2108 30.1049ZM33.2108 14.4356C29.6263 14.4356 26.7094 17.3522 26.7094 20.937C26.7094 22.8438 27.5433 24.6466 28.9973 25.8836C31.345 27.8915 35.0871 27.8868 37.4199 25.8869C38.8783 24.6453 39.7122 22.8418 39.7122 20.937C39.712 17.3522 36.7954 14.4356 33.2108 14.4356Z" fill="white"/>
<path d="M45.5158 42.5632H42.8491V35.1647C42.8491 32.2422 41.1303 29.6133 38.5058 28.4194C35.4251 30.6044 30.9909 30.6009 27.9186 28.4201C25.2949 29.6142 23.5768 32.2424 23.5768 35.165V42.5634H20.9102V35.165C20.9102 30.8707 23.6387 27.0427 27.7 25.6389C28.1491 25.4871 28.6434 25.5783 29.0034 25.8871C31.336 27.8866 35.0803 27.8898 37.4233 25.8863C37.7812 25.5783 38.2768 25.4854 38.7254 25.6389C42.7867 27.042 45.5158 30.87 45.5158 35.165V42.5632Z" fill="white"/>
<path d="M10.9305 45.2872C7.2684 40.3836 5.33203 34.5489 5.33203 28.4142C5.33203 12.8542 17.9903 0.195435 33.5495 0.195435C36.8368 0.195435 40.0562 0.755353 43.1178 1.86004L42.2129 4.36849C39.4421 3.36839 36.5272 2.86188 33.5495 2.86188C19.4609 2.86188 7.99872 14.3248 7.99872 28.4139C7.99872 33.9694 9.75126 39.2518 13.0671 43.6907L10.9305 45.2872Z" fill="white"/>
<path d="M38.9181 56.1204L38.4141 53.5019C50.4016 51.192 59.1022 40.6407 59.1022 28.4127C59.1022 27.0735 58.9966 25.7239 58.789 24.4023L61.4231 23.9882C61.6524 25.4466 61.7689 26.9349 61.7689 28.4127C61.7689 41.9168 52.1589 53.5697 38.9181 56.1204Z" fill="white"/>
<path d="M50.9922 49.1583L52.8774 47.2731L59.9518 54.3476L58.0666 56.2327L50.9922 49.1583Z" fill="white"/>
<path d="M65.153 71.8048L55.5052 62.1563C54.8067 61.4583 54.4219 60.53 54.4219 59.5418C54.4219 58.5536 54.8067 57.6251 55.5052 56.9265L60.6503 51.7819C62.0488 50.3849 64.4835 50.3849 65.8808 51.7819L76.9441 62.8452L75.0586 64.7306L63.9949 53.6674C63.6044 53.2769 62.9265 53.2774 62.536 53.6681L57.3909 58.8127C57.1956 59.008 57.0888 59.267 57.0888 59.5418C57.0888 59.8165 57.1956 60.0756 57.3909 60.2709L67.0387 69.9194L65.153 71.8048Z" fill="white"/>
<path d="M78.6653 21.5287H46.6653C45.929 21.5287 45.332 20.9318 45.332 20.1955V4.19534C45.332 3.45905 45.929 2.86212 46.6653 2.86212H78.6653C79.4016 2.86212 79.9985 3.45905 79.9985 4.19534V20.1952C79.9985 20.9318 79.4016 21.5287 78.6653 21.5287ZM47.9985 18.862H77.3318V5.52857H47.9985V18.862Z" fill="white"/>
<path d="M50.668 8.19525H74.6679V10.8619H50.668V8.19525Z" fill="white"/>
<path d="M50.668 13.5286H64.0014V16.1953H50.668V13.5286Z" fill="white"/>
<path d="M66.668 13.5286H74.668V16.1953H66.668V13.5286Z" fill="white"/>
<path d="M33.3333 65.5288H1.33322C0.596932 65.5288 0 64.9323 0 64.1955V48.1956C0 47.4594 0.596932 46.8624 1.33322 46.8624H33.3333C34.0696 46.8624 34.6665 47.4594 34.6665 48.1956V64.1955C34.6667 64.9323 34.0698 65.5288 33.3333 65.5288ZM2.66669 62.8621H32V49.5286H2.66669V62.8621Z" fill="white"/>
<path d="M5.33203 52.1953H29.332V54.862H5.33203V52.1953Z" fill="white"/>
<path d="M5.33203 57.5287H18.6655V60.1954H5.33203V57.5287Z" fill="white"/>
<path d="M21.332 57.5287H29.3321V60.1954H21.332V57.5287Z" fill="white"/>
</svg>
